<ttFont>
          <CharString index="0">
            -107 callgsubr
            hintmask 10100000
            -90 callgsubr
          </CharString>
          <CharString index="1">
            rmoveto
            -76 -43 -108 -112 -139 hhcurveto
            -117 -40 86 66 4 hvcurveto
            3 54 24 35 31 22 rrcurveto
            -15 35 39 -8 37 hhcurveto
            48 68 11 45 2 hvcurveto
            2 52 -64 14 -48 1 rrcurveto
            -24 -25 -1 -3 -25 hvcurveto
            -22 30 -10 40 3 35 rrcurveto
            65 6 66 59 66 hhcurveto
            return
          </CharString>
          <CharString index="2">
            -106 callgsubr
            0 -33 -10 -37 vvcurveto
            -50 45 -15 34 vhcurveto
            return
          </CharString>
          <CharString index="3">
            rmoveto
            -52 callgsubr
            -52 callsubr
            hvcurveto
            -94 callgsubr
            return
          </CharString>
          <CharString index="4">
            hhcurveto
            172 122 134 92 41 hvcurveto
            -7 12 -12 20 -21 20 -58 -113 -94 -69 -93 -6 rrcurveto
            -80 -5 -51 56 83 vvcurveto
            116 60 69 54 2 vhcurveto
            27 1 36 -12 -43 vvcurveto
            -46 -33 -62 -90 -19 vhcurveto
            return
          </CharString>
          <CharString index="5">
            -96 callsubr
            hintmask 11101101
            -82 callsubr
            hintmask 11101110
            -58 callsubr
            hintmask 11101101
            -82 callgsubr
          </CharString>
          <CharString index="6">
            -105 callsubr
            hintmask 11111100
            -91 callsubr
          </CharString>
          <CharString index="7">
            -106 callsubr
            hintmask 11101110
            -90 callsubr
          </CharString>
          <CharString index="8">
            rmoveto
            -65 callgsubr
            -55 callgsubr
            vhcurveto
            -81 callgsubr
          </CharString>
          <CharString index="9">
            hhcurveto
            60 49 28 39 30 hvcurveto
            -42 19 38 -25 60 hhcurveto
            57 85 34 143 34 hvcurveto
            -5 15 -11 15 -24 26 rrcurveto
            -105 -26 -50 -37 -29 hhcurveto
            -17 -15 12 41 4 hvcurveto
            4 45 9 70 27 217 rrcurveto
            return
          </CharString>
          <CharString index="10">
            -97 callgsubr
            hintmask 01111000
            -78 callgsubr
            hintmask 10111000
            -93 callsubr
          </CharString>
          <CharString index="11">
            rmoveto
            4 -16 -36 2 -14 hhcurveto
            -94 -62 -74 -71 -1 hvcurveto
            -2 -100 67 -60 92 -6 133 -9 75 98 17 127 52 371 rcurveline
            10 77 44 -59 callsubr
            return
          </CharString>
          <CharString index="12">
            -105 -45 -82 -56 -10 -74 rrcurveto
            -87 -12 53 -40 50 hhcurveto
            110 29 85 89 32 hvcurveto
            34 94 46 15 48 15 47 14 rlinecurve
            return
          </CharString>
          <CharString index="13">
            -92 callgsubr
            9 -22 -31 39 callsubr
            return
          </CharString>
          <CharString index="14">
            -92 callsubr
            19 -5 -7 17 hvcurveto
            endchar
          </CharString>
          <CharString index="15">
            -67 -24 -35 -22 -36 hhcurveto
            -81 callsubr
            20 return
          </CharString>
          <CharString index="16">
            -89 callgsubr
            hvcurveto
            -27 callgsubr
          </CharString>
          <CharString index="17">
            -79 callgsubr
            -68 callgsubr
          </CharString>
          <CharString index="18">
            -2 -15 -1 -14 -13 vvcurveto
            -121 70 -68 125 75 47 20 53 42 vhcurveto
            3 hlineto
            -46 17 37 -27 52 hhcurveto
            104 61 101 158 41 hvcurveto
            -13 7 -44 28 0 vvcurveto
            return
          </CharString>
          <CharString index="19">
            22 callgsubr
            -116 -71 -87 -144 -15 hvcurveto
            -9 -1 -10 -5 vvcurveto
            -114 54 -80 100 -5 vhcurveto
            116 -7 71 106 15 122 rrcurveto
            12 1 12 9 vvcurveto
            135 -66 65 -88 vhcurveto
            417 hmoveto
            -558 -861 rlineto
            9 callgsubr
            -503 -56 rmoveto
            59 -1 7 -75 -60 vvcurveto
            -8 -1 -7 -1 -7 vhcurveto
            -9 -123 -42 -66 -55 5 rrcurveto
            -62 2 -4 78 58 vvcurveto
            2 0 7 1 6 vhcurveto
            120 8 42 69 57 hhcurveto
            458 -251 rmoveto
            -65 callsubr
            return
          </CharString>
          <CharString index="20">
            2 94 2 63 73 26 103 -4 14 -27 35 -9 5 -16 -62 -39 -78 -47 1 -48 1 10 41 5 41 return
          </CharString>
          <CharString index="21">
            rmoveto
            17 12 8 13 17 24 -9 -9 33 vhcurveto
            20 -6 18 -4 17 -4 rrcurveto
            -19 -34 -34 -11 -29 hhcurveto
            -33 -24 18 19 hvcurveto
            return
          </CharString>
          <CharString index="22">
            vvcurveto
            81 -54 43 -76 -86 -68 -39 -128 -16 vhcurveto
            -20 -163 -42 -13 -48 -13 -54 -12 rlinecurve
            -75 vlineto
            46 11 46 11 44 14 -14 -127 rcurveline
            1 -10 -10 1 -11 hhcurveto
            -75 -54 -49 -78 -72 60 -36 52 54 55 19 55 34 hvcurveto
            -38 45 48 -36 52 hhcurveto
            81 56 59 117 32 hvcurveto
            -8 19 -24 23 -18 17 rrcurveto
            -95 -30 -14 -51 -66 hhcurveto
            -37 -37 40 39 -47 hvcurveto
            51 410 rmoveto
            53 6 11 46 36 hhcurveto
            21 14 -15 -27 -50 -29 -45 -69 -41 hvcurveto
            -224 -410 6 callsubr
            12 -3 -5 12 hvcurveto
            -33 -5 -9 -26 -32 hhcurveto
            endchar
          </CharString>
          <CharString index="23">
            -47 -44 -35 -54 -60 vvcurveto
            -93 69 -42 70 128 51 101 106 13 vhcurveto
            16 125 59 -18 38 -54 13 -80 rlinecurve
            18 22 18 29 2 9 -18 109 -60 41 -62 11 rrcurveto
            -156 -202 rmoveto
            -90 -11 -16 -20 -41 hhcurveto
            -23 -30 16 49 hvcurveto
            2 64 61 54 71 37 rrcurveto
            endchar
          </CharString>
          <CharString index="24">
            83 43 64 59 -80 callsubr
            return
          </CharString>
          <CharString index="25">
            -50 callsubr
            34 35 8 13 37 hvcurveto
            -14 -99 -18 -171 -7 -65 -9 -81 -32 -42 -54 -1 rrcurveto
            return
          </CharString>
          <CharString index="26">
            -43 -46 35 89 6 hvcurveto
            129 9 53 64 84 hhcurveto
            return
          </CharString>
          <CharString index="27">
            88 -83 46 -91 -44 callsubr
            -172 88 -131 178 return
          </CharString>
          <CharString index="28">
            -48 7 -33 28 3 40 1 16 12 22 31 2 -5 4 -20 5 -12 2 return
          </CharString>
          <CharString index="29">
            574 16 callsubr
            hintmask 10011000
            -43 callgsubr
            hintmask 11001000
            -80 callgsubr
            hintmask 10101000
            -5 1 -14 1 -7 vhcurveto
            endchar
          </CharString>
          <CharString index="30">
            4 35 7 51 28 218 rrcurveto
            4 -12 -16 3 -17 hhcurveto
            -38 -45 -12 -25 -14 hvcurveto
            return
          </CharString>
          <CharString index="31">
            -60 callgsubr
            -126 92 -74 93 return
          </CharString>
          <CharString index="32">
            980 -99 callgsubr
            return
          </CharString>
          <CharString index="33">
            hhcurveto
            -76 callsubr
            return
          </CharString>
          <CharString index="34">
            rmoveto
            18 35 12 35 33 vvcurveto
            86 -59 70 -118 -119 -88 -79 -98 -50 35 -72 33 -65 vhcurveto
            -99 -52 -68 -73 -98 vvcurveto
            -89 62 -93 128 108 106 76 124 81 -31 55 -58 108 vhcurveto
            -15 28 -52 92 43 vvcurveto
            52 36 20 43 51 30 -37 -42 -31 -14 -35 -16 -24 vhcurveto
            -200 -419 rmoveto
            -45 1 -44 37 63 vvcurveto
            36 16 60 96 50 vhcurveto
            34 -66 28 -45 -47 vvcurveto
            -59 -31 -31 -54 1 vhcurveto
            endchar
          </CharString>
          <CharString index="35">
            550 -96 callgsubr
            return
          </CharString>
          <CharString index="36">
            830 -96 callgsubr
            return
          </CharString>
          <CharString index="37">
            -107 791 -2 callsubr
            791 -87 callgsubr
          </CharString>
          <CharString index="38">
            1 24 7 22 36 2 21 -1 29 -15 -4 -46 -6 -70 -45 -39 -38 -35 -41 -37 -47 -35 -3 -2 callgsubr
            -28 51 hhcurveto
            51 41 40 66 -5 hvcurveto
            -1 9 0 9 -1 10 rrcurveto
            -42 callgsubr
            43 17 callsubr
            -76 -26 -74 -2 vhcurveto
            return
          </CharString>
          <CharString index="39">
            rmoveto
            -1 -12 -1 -12 -11 vvcurveto
            -33 -22 -30 -16 -31 hhcurveto
            -36 -24 20 61 8 hvcurveto
            return
          </CharString>
          <CharString index="40">
            rmoveto
            17 -208 -34 -11 -35 -12 -35 -12 rlinecurve
            -204 -234 rmoveto
            return
          </CharString>
          <CharString index="41">
            -59 callgsubr
            -30 -188 rlineto
            -62 callgsubr
            return
          </CharString>
          <CharString index="42">
            -117 -71 -88 -143 -16 hvcurveto
            -10 -1 -10 -3 vvcurveto
            -115 55 -80 100 -5 vhcurveto
            116 -8 72 106 13 123 rrcurveto
            12 1 11 11 vvcurveto
            133 -64 66 -88 vhcurveto
            return
          </CharString>
          <CharString index="43">
            737 -93 callgsubr
            return
          </CharString>
          <CharString index="44">
            61 -1 6 -75 -59 vvcurveto
            -7 -2 -9 -1 -7 vhcurveto
            -8 -122 -43 -66 -55 4 rrcurveto
            -61 3 -5 78 57 vvcurveto
            2 0 7 1 7 vhcurveto
            120 9 42 68 56 hhcurveto
            return
          </CharString>
          <CharString index="45">
            749 rmoveto
            -200 -454 -62 465 rlineto
            -7 hlineto
            2 -15 -17 0 -17 hhcurveto
            -23 -32 -2 -4 -16 hvcurveto
            -6 -38 -58 -281 -32 -154 -94 -43 -73 -56 3 -87 rrcurveto
            -69 3 43 -35 60 hhcurveto
            55 61 38 106 24 hvcurveto
            70 310 49 -373 rlineto
            85 hlineto
            164 379 -17 -137 -18 -140 -6 -64 rlinecurve
            return
          </CharString>
          <CharString index="46">
            72 42 -36 -73 -1 hvcurveto
            95 hlineto
            117 -82 79 -131 return
          </CharString>
          <CharString index="47">
            rmoveto
            38 335 rlineto
            -64 hlineto
            -13 -26 -52 -22 -51 -13 -7 -47 rcurveline
            88 8 -26 -235 rlineto
            -82 hlineto
            -7 -55 rlineto
            251 hlineto
            1 13 4 28 1 14 rrcurveto
            return
          </CharString>
          <CharString index="48">
            6 27 -16 4 39 -8 36 -20 28 rrcurveto
            -25 -33 -36 -10 -45 hhcurveto
            return
          </CharString>
          <CharString index="49">
            -37 -1 -36 27 2 50 rrcurveto
            49 2 39 34 55 hhcurveto
            15 19 -1 -3 13 hvcurveto
            return
          </CharString>
          <CharString index="50">
            136 24 94 62 106 vvcurveto
            77 -2 -70 47 -102 hhcurveto
            return
          </CharString>
          <CharString index="51">
            -40 -33 23 callgsubr
            33 -32 40 return
          </CharString>
          <CharString index="52">
            rmoveto
            -94 396 rlineto
            113 -25 -57 37 -79 hhcurveto
            -77 -69 -51 -28 -20 hvcurveto
            19 -86 rlineto
            23 17 26 29 46 hhcurveto
            35 22 -12 -24 15 hvcurveto
            -25 5 -29 -4 -21 -9 -43 -322 rcurveline
            -90 -43 -68 -56 10 -87 rrcurveto
            -69 9 46 -35 59 hhcurveto
            55 56 38 106 15 hvcurveto
            55 390 rlineto
            return
          </CharString>
          <CharString index="53">
            -29 -3 -18 -12 -18 hhcurveto
            -24 -8 21 19 hvcurveto
            return
          </CharString>
          <CharString index="54">
            -50 -46 67 3 -73 hvcurveto
            -70 3 -42 -67 -16 -69 return
          </CharString>
          <CharString index="55">
            39 32 22 callsubr
            -32 33 -39 return
          </CharString>
          <CharString index="56">
            rmoveto
            -96 -11 -34 -42 -60 hhcurveto
            -45 callsubr
            return
          </CharString>
          <CharString index="57">
            -76 -64 46 -74 hhcurveto
            -74 -65 -37 -88 -58 47 -58 103 return
          </CharString>
          <CharString index="58">
            -56 -6 89 159 63 216 59 -59 195 -74 120 return
          </CharString>
          <CharString index="59">
            3 -7 -24 5 -24 hhcurveto
            -28 -57 -12 -11 -8 hvcurveto
            return
          </CharString>
          <CharString index="60">
            -76 -88 -32 -87 -67 44 -39 69 60 59 45 61 28 hvcurveto
            -65 hmoveto
            -30 -20 -31 -17 -19 hhcurveto
            -13 -19 5 16 15 10 11 27 hvcurveto
            267 -43 rmoveto
            -39 callsubr
            -35 -266 rlineto
            return
          </CharString>
          <CharString index="61">
            0 -33 -10 -37 vvcurveto
            -50 45 -15 34 return
          </CharString>
          <CharString index="62">
            -52 -21 39 48 7 0 7 1 7 hvcurveto
            51 391 rlineto
            return
          </CharString>
          <CharString index="63">
            -231 -146 -230 -234 return
          </CharString>
          <CharString index="64">
            rmoveto
            33 -48 30 -55 -42 vvcurveto
            -41 -23 -14 -22 -15 -21 11 36 2 vhcurveto
            5 0 3 1 5 vhcurveto
            endchar
          </CharString>
          <CharString index="65">
            rmoveto
            0 -22 8 -33 -22 -51 -12 -29 -14 vhcurveto
            -13 -105 -11 -104 -11 -94 rrcurveto
            -31 -21 -29 -15 -30 hhcurveto
            return
          </CharString>
          <CharString index="66">
            65 9 5 33 27 hhcurveto
            15 7 -18 -12 -2 hvcurveto
            -1 -8 -8 -31 -53 -38 rrcurveto
            -528 -364 rmoveto
            -75 -9 -7 -33 -25 hhcurveto
            -13 -11 7 23 -2 hvcurveto
            -4 24 13 25 59 34 rrcurveto
            endchar
          </CharString>
          <CharString index="67">
            194 146 154 192 32 return
          </CharString>
          <CharString index="68">
            3 -14 -19 -31 callgsubr
            return
          </CharString>
          <CharString index="69">
            9 -15 -13 1 -28 hhcurveto
            return
          </CharString>
          <CharString index="70">
            rmoveto
            16 147 1 49 36 3 14 1 25 -6 -3 -52 -3 -52 -39 -65 -50 -55 rrcurveto
            return
          </CharString>
          <CharString index="71">
            -67 -52 -68 -71 -47 hhcurveto
            -13 -11 6 20 -1 hvcurveto
            3 0 5 1 4 vhcurveto
            10 92 18 228 40 299 rrcurveto
            3 -18 -26 2 -22 hhcurveto
            -23 -22 -2 -6 -16 hvcurveto
            return
          </CharString>
          <CharString index="72">
            354 671 rmoveto
            -196 -128 -150 -176 -176 128 -148 196 196 130 150 176 176 -130 148 -196 hvcurveto
            return
          </CharString>
          <CharString index="73">
            -113 -29 -60 -88 -68 hhcurveto
            -27 -22 11 54 5 hvcurveto
            2 24 7 53 13 119 return
          </CharString>
          <CharString index="74">
            9 -29 callsubr
            78 return
          </CharString>
          <CharString index="75">
            3 90 111 36 72 1 121 2 170 -73 -21 -246 -11 -126 -65 -125 -137 -15 -27 -3 -28 4 -23 6 11 26 8 31 6 38 return
          </CharString>
          <CharString index="76">
            208 -6 93 417 72 97 88 return
          </CharString>
          <CharString index="77">
            -45 -26 32 39 6 1 5 1 6 hvcurveto
            13 109 38 257 6 81 rrcurveto
            return
          </CharString>
          <CharString index="78">
            -6 92 -70 -21 408 return
          </CharString>
          <CharString index="79">
            119 -527 rlineto
            168 hlineto
            70 473 85 42 47 55 15 76 rlinecurve
            56 11 -42 59 -67 hhcurveto
            -78 -43 -41 -104 -15 hvcurveto
            101 -48 rmoveto
            return
          </CharString>
          <CharString index="80">
            191 hlineto
            10 86 rlineto
            -191 hlineto
            24 210 rlineto
            -91 hlineto
            -24 -210 rlineto
            -190 35 callsubr
            190 hlineto
            -25 -213 rlineto
            return
          </CharString>
          <CharString index="81">
            27 22 -22 -27 -27 -22 -22 -27 -27 -22 22 27 27 22 22 27 hvcurveto
            return
          </CharString>
          <CharString index="82">
            22 46 20 15 32 -2 rrcurveto
            return
          </CharString>
          <CharString index="83">
            15 5 13 8 8 vhcurveto
            -75 -33 -32 -38 -47 51 -52 87 100 79 return
          </CharString>
          <CharString index="84">
            -18 -3 -10 -14 -16 hhcurveto
            -8 -8 5 19 6 4 24 4 30 hvcurveto
            return
          </CharString>
          <CharString index="85">
            hstemhm
            0 64 4 135 -83 138 return
          </CharString>
          <CharString index="86">
            220 1 rmoveto
            26 -2 17 -10 -6 -40 rrcurveto
            -23 callsubr
            endchar
          </CharString>
          <CharString index="87">
            153 46 hvcurveto
            -5 14 -12 17 -24 26 rrcurveto
            return
          </CharString>
          <CharString index="88">
            rmoveto
            -92 callsubr
            20 -6 -7 18 hvcurveto
            endchar
          </CharString>
          <CharString index="89">
            143 9 74 141 20 101 -8 15 -28 21 -11 4 rrcurveto
            return
          </CharString>
          <CharString index="90">
            -58 -6 -15 32 8 66 rrcurveto
            10 80 21 142 28 vvcurveto
            37 -30 5 callsubr
            return
          </CharString>
          <CharString index="91">
            114 -89 69 -121 -234 -143 -233 -237 return
          </CharString>
          <CharString index="92">
            63 -6 91 -91 104 571 92 return
          </CharString>
          <CharString index="93">
            143 96 145 return
          </CharString>
          <CharString index="94">
            -58 -48 callgsubr
            256 5 callgsubr
            return
          </CharString>
          <CharString index="95">
            164 -15 11 86 -168 -15 33 295 rlineto
            -83 hlineto
            -33 -297 -179 17 -12 -86 185 17 return
          </CharString>
          <CharString index="96">
            -33 -280 -6 -21 -42 vvcurveto
            -83 55 -42 73 -6 vhcurveto
            return
          </CharString>
          <CharString index="97">
            89 307 92 279 -20 hstem
            242 -11 callgsubr
            return
          </CharString>
          <CharString index="98">
            -22 callgsubr
            -43 -38 -12 -21 -30 hvcurveto
            return
          </CharString>
          <CharString index="99">
            -1 -8 -1 -7 -7 vvcurveto
            -76 56 -51 67 -12 vhcurveto
            return
          </CharString>
          <CharString index="100">
            -19 -6 82 324 81 return
          </CharString>
          <CharString index="101">
            -103 -48 -75 -65 -87 vvcurveto
            -66 46 -50 73 82 76 44 152 19 vhcurveto
            -137 -28 rmoveto
            return
          </CharString>
          <CharString index="102">
            -27 -7 19 17 34 35 36 59 33 hvcurveto
            endchar
          </CharString>
          <CharString index="103">
            -54 callsubr
            -46 callsubr
            return
          </CharString>
          <CharString index="104">
            50 120 220 -126 126 -49 49 return
          </CharString>
          <CharString index="105">
            44 callgsubr
            20 168 vstem
            127 return
          </CharString>
          <CharString index="106">
            -861 14 callgsubr
            return
          </CharString>
          <CharString index="107">
            hlineto
            11 86 rlineto
            return
          </CharString>
          <CharString index="108">
            -20 hstemhm
            -45 122 56 77 -77 193 -157 84 134 142 hintmask 11101010
            return
          </CharString>
          <CharString index="109">
            rmoveto
            4 0 6 13 11 7 -11 -16 4 vhcurveto
            -21 -1 -14 5 13 vvcurveto
            endchar
          </CharString>
          <CharString index="110">
            rmoveto
            -58 -47 -47 -58 -58 47 -47 58 58 47 47 58 58 -47 47 -58 hvcurveto
            return
          </CharString>
          <CharString index="111">
            rmoveto
            -13 -99 639 226 -579 305 -12 -96 382 -193 rlineto
            return
          </CharString>
          <CharString index="112">
            13 -41 -1 vhcurveto
            -24 -1 -28 -7 -11 -4 return
          </CharString>
          <CharString index="113">
            rmoveto
            -12 -17 7 23 20 17 17 22 12 return
          </CharString>
          <CharString index="114">
            -104 -48 -75 -65 -88 vvcurveto
            -65 45 -49 72 return
          </CharString>
          <CharString index="115">
            -73 -6 90 321 76 return
          </CharString>
          <CharString index="116">
            245 rlineto
            -66 hlineto
            return
          </CharString>
          <CharString index="117">
            -5 -27 -2 -40 -23 4 -49 rrcurveto
            -35 3 27 -33 59 hhcurveto
            9 hlineto
            return
          </CharString>
          <CharString index="118">
            -144 -112 112 144 144 112 114 144 return
          </CharString>
          <CharString index="119">
            -7 -53 rlineto
            -1 -5 -1 -5 -5 vvcurveto
            return
          </CharString>
          <CharString index="120">
            hhcurveto
            -21 -20 -5 -6 -23 hvcurveto
            endchar
          </CharString>
          <CharString index="121">
            rmoveto
            -57 callsubr
            return
          </CharString>
          <CharString index="122">
            191 -7 94 -66 -21 649 113 -96 96 -1 -20 return
          </CharString>
          <CharString index="123">
            rmoveto
            -2 7 -2 18 1 5 rrcurveto
            return
          </CharString>
          <CharString index="124">
            45 62 vvcurveto
            74 -61 34 -69 -55 return
          </CharString>
          <CharString index="125">
            -59 -9 -27 -18 -15 hhcurveto
            return
          </CharString>
          <CharString index="126">
            154 325 95 return
          </CharString>
          <CharString index="127">
            rmoveto
            -4 callgsubr
            return
          </CharString>
          <CharString index="128">
            90 hstem
            0 76 351 75 vstem
            289 172 rmoveto
            return
          </CharString>
          <CharString index="129">
            32 40 40 return
          </CharString>
          <CharString index="130">
            -14 callgsubr
            916 -20 hstemhm
            hintmask 01100000
            return
          </CharString>
          <CharString index="131">
            rmoveto
            357 551 3 4 3 5 3 5 rlinecurve
            return
          </CharString>
          <CharString index="132">
            22 callgsubr
            -83 hlineto
            -558 -1 callsubr
            return
          </CharString>
          <CharString index="133">
            -4 0 119 62 62 275 62 62 119 return
          </CharString>
          <CharString index="134">
            rmoveto
            -13 -86 rlineto
            579 0 callsubr
            endchar
          </CharString>
          <CharString index="135">
            105 -274 99 856 81 return
          </CharString>
          <CharString index="136">
            hlineto
            80 198 rlineto
            -76 hlineto
            -80 -198 rlineto
            return
          </CharString>
          <CharString index="137">
            -21 484 -20 hstem
            return
          </CharString>
          <CharString index="138">
            rmoveto
            -9 -86 rlineto
            472 hlineto
            9 86 rlineto
            return
          </CharString>
          <CharString index="139">
            3 -42 18 -9 -6 rrcurveto
            return
          </CharString>
          <CharString index="140">
            1 5 10 0 15 hhcurveto
            return
          </CharString>
          <CharString index="141">
            -309 -7 93 return
          </CharString>
          <CharString index="142">
            hlineto
            -10 -86 rlineto
            return
          </CharString>
          <CharString index="143">
            30 238 return
          </CharString>
          <CharString index="144">
            1 -16 hhcurveto
            -37 -31 -12 -13 -27 hvcurveto
            return
          </CharString>
          <CharString index="145">
            -245 rlineto
            endchar
          </CharString>
          <CharString index="146">
            8 -39 hhcurveto
            return
          </CharString>
          <CharString index="147">
            -20 -6 91 -64 -21 398 83 return
          </CharString>
          <CharString index="148">
            81 -81 169 119 88 hstemhm
            return
          </CharString>
          <CharString index="149">
            hlineto
            -9 -24 0 -34 1 -19 rrcurveto
            return
          </CharString>
          <CharString index="150">
            65 -52 28 -44 vhcurveto
            return
          </CharString>
          <CharString index="151">
            651 -20 hstem
            return
          </CharString>
        <CharString name=".notdef">
          -39 0 50 600 50 hstem
          0 50 400 50 vstem
          500 700 rmoveto
          -500 -700 500 hlineto
          -420 650 rmoveto
          340 hlineto
          -170 -255 rlineto
          -30 -45 rmoveto
          -170 -255 rlineto
          510 vlineto
          400 hmoveto
          -510 vlineto
          -170 255 rlineto
          -30 -45 rmoveto
          170 -255 rlineto
          -340 hlineto
          endchar
        </CharString>
        <CharString name="A">
          -14 callgsubr
          hstemhm
          hintmask 01000000
          836 166 -107 callgsubr
          hintmask 10000000
          -90 callgsubr
        </CharString>
        <CharString name="AE">
          657 -48 callgsubr
          hstemhm
          946 95 hintmask 11011000
          1064 274 -106 callsubr
          hintmask 11101000
          -61 callsubr
          -137 -126 -88 -121 -11 vhcurveto
          -8 92 -5 80 -1 32 -2 1 -3 0 -2 1 -4 1 rcurveline
          -5 1 -5 0 -5 1 -8 1 rcurveline
          -35 2 -39 -6 -25 -14 -45 callgsubr
          -95 callsubr
          3 -33 rlineto
          -7 -22 -3 -24 -27 -63 callgsubr
          -648 375 rmoveto
          18 -208 -35 -11 -35 -12 -35 -12 rlinecurve
          196 136 rmoveto
          8 -27 13 -24 16 -20 -10 -6 -10 -5 -9 -6 rrcurveto
          -408 -282 rmoveto
          -90 callgsubr
        </CharString>
        <CharString name="Aacute">
          23 callsubr
          430 -71 callsubr
          279 -851 -107 callsubr
        </CharString>
        <CharString name="Acircumflex">
          -14 callgsubr
          879 -20 hstemhm
          hintmask 01100000
          499 -75 callsubr
          163 -693 -107 callsubr
        </CharString>
        <CharString name="Adieresis">
          -14 callgsubr
          711 145 hstemhm
          544 145 hintmask 01110000
          377 -95 callgsubr
          219 -791 -107 callgsubr
          hintmask 10110000
          -90 callgsubr
        </CharString>
        <CharString name="Agrave">
          23 callsubr
          469 -64 callgsubr
          240 -664 -107 callsubr
        </CharString>
        <CharString name="Aring">
          -14 callgsubr
          788 56 hstemhm
          533 56 hintmask 01110000
          836 166 -83 callgsubr
          -17 4 rcurveline
          22 19 15 29 32 38 callgsubr
          -36 19 -33 28 -18 vhcurveto
          -20 -9 -45 callgsubr
          rlinecurve
          -102 callgsubr
          -328 755 rmoveto
          -26 callsubr
          -35 -301 -67 callsubr
          hintmask 10110000
          -90 callgsubr
        </CharString>
        <CharString name="Atilde">
          -14 callgsubr
          703 36 callgsubr
          hintmask 10010000
          354 7 callgsubr
          hintmask 10100000
          -72 callgsubr
          hintmask 01010000
          -53 callsubr
          rrcurveto
          526 -680 -107 callsubr
        </CharString>
        <CharString name="B">
          168 -6 90 -67 -21 349 43 -43 74 251 91 hstemhm
          42 64 -64 89 396 139 -104 149 hintmask 1001101100000000
          211 479 rmoveto
          -47 5 -33 26 37 vvcurveto
          80 114 45 83 -2 vhcurveto
          130 -3 71 -62 -2 -70 rrcurveto
          -84 -2 -69 -32 -73 hhcurveto
          -9 -74 rlineto
          hintmask 1010110010000000
          119 69 -60 -79 -72 -57 -50 -71 -41 -37 8 15 -29 hvcurveto
          -31 -84 rlineto
          -23 32 57 -6 58 hhcurveto
          145 123 74 138 107 -104 67 -106 8 hvcurveto
          44 1 42 19 28 28 rrcurveto
          hintmask 0110110100000000
          31 31 19 37 1 49 rrcurveto
          76 1 -63 132 -256 hhcurveto
          -191 -108 -96 -114 -7 hvcurveto
          -5 -76 58 -66 105 -4 rrcurveto
          191 214 rmoveto
          -39 callsubr
          -5 -32 -17 -139 -15 -116 rrcurveto
          7 callsubr
          86 70 44 152 23 vhcurveto
          -137 -28 rmoveto
          18 callsubr
          -5 callsubr
        </CharString>
        <CharString name="C">
          36 -6 92 299 41 callsubr
          30 153 117 95 134 88 hintmask 11011110
          -34 callgsubr
          hintmask 10111110
          -28 callgsubr
          -175 84 -122 216 30 callgsubr
        </CharString>
        <CharString name="CR">
          -319 endchar
        </CharString>
        <CharString name="Ccedilla">
          36 -184 114 38 27 0 91 299 169 -88 207 0 88 hstemhm
          30 153 117 95 -27 73 88 88 hintmask 1010101101000000
          -34 callgsubr
          hintmask 1101011101000000
          -28 callgsubr
          -165 74 -117 189 -14 hvcurveto
          -25 -66 rlineto
          33 callsubr
          hintmask 1100101011000000
          -49 callgsubr
          43 callsubr
          -6 -1 10 28 144 8 113 97 69 113 rlinecurve
          endchar
        </CharString>
        <CharString name="D">
          205 -4 91 586 92 hstemhm
          30 74 -59 91 hintmask 11010000
          199 476 rmoveto
          -51 5 -13 38 1 27 -32 callsubr
          63 427 rcurveline
          -39 callsubr
          -5 -32 -17 -139 -15 -116 rrcurveto
          hintmask 11100000
          -39 callgsubr
          hintmask 11010000
          37 callgsubr
          -2 -62 42 -63 104 -5 rrcurveto
          -247 vmoveto
          18 callsubr
          hintmask 11100000
          -5 callsubr
        </CharString>
        <CharString name="E">
          -58 -48 callgsubr
          hstemhm
          22 19 callsubr
          hintmask 11011100
          619 274 -106 callsubr
          hintmask 11101100
          -90 callsubr
        </CharString>
        <CharString name="Eacute">
          -13 callsubr
          323 -71 callsubr
          169 -743 -100 callsubr
        </CharString>
        <CharString name="Ecircumflex">
          -58 -48 callgsubr
          219 5 callgsubr
          392 -75 callsubr
          53 -585 -100 callsubr
        </CharString>
        <CharString name="Edieresis">
          -58 -48 callgsubr
          45 callgsubr
          22 154 -68 233 -143 -14 callsubr
          -81 95 hintmask 1101110110000000
          270 -95 callgsubr
          109 -683 -106 callsubr
          hintmask 1110101001000000
          -79 callgsubr
          hintmask 1110110110000000
          -68 callgsubr
        </CharString>
        <CharString name="Egrave">
          -13 callsubr
          362 -64 callgsubr
          130 -556 -100 callsubr
        </CharString>
        <CharString name="Eth">
          205 -4 91 304 86 -86 233 49 92 hstemhm
          30 74 -59 91 hintmask 11011000
          52 477 rmoveto
          -9 -86 rlineto
          176 hlineto
          -10 -80 rlineto
          -39 callgsubr
          hintmask 11010100
          37 callgsubr
          -1 -22 5 -22 11 -20 rrcurveto
          295 -86 rmoveto
          70 hlineto
          9 86 rlineto
          -66 hlineto
          21 142 rlineto
          hintmask 10111000
          -39 callsubr
          hintmask 11010100
          -3 -17 -6 -47 -7 -57 rrcurveto
          -38 hlineto
          -45 8 -12 35 1 26 -32 callsubr
          rrcurveto
          -137 -28 rmoveto
          18 callsubr
          hintmask 11011000
          -5 callsubr
        </CharString>
        <CharString name="Euro">
          -6 92 186 71 39 71 126 182 -88 88 hstemhm
          hintmask 11101000
          641 274 rmoveto
          -104 -65 -106 -84 -115 hhcurveto
          -123 -42 94 92 -6 hvcurveto
          194 hlineto
          21 71 rlineto
          -214 hlineto
          1 13 1 13 2 13 rrcurveto
          229 hlineto
          21 71 rlineto
          -234 hlineto
          123 36 78 97 101 hhcurveto
          1 hlineto
          30 -1 28 -6 19 -14 -2 -1 rcurveline
          13 -11 9 -18 3 -23 rrcurveto
          hintmask 11110000
          2 -8 -1 -2 1 -10 rrcurveto
          93 hlineto
          24 -2 11 -2 12 vhcurveto
          74 -2 -62 61 -141 hhcurveto
          -180 -125 -137 -171 -49 hvcurveto
          -81 -71 65 hlineto
          -2 -13 -2 -13 -1 -13 rrcurveto
          -61 -71 59 hlineto
          -167 9 117 -111 174 hhcurveto
          30 callgsubr
        </CharString>
        <CharString name="F">
          17 -6 91 258 88 -88 201 -18 61 2 111 -59 120 hstemhm
          25 99 76 140 85 67 hintmask 1101101110000000
          572 760 rmoveto
          -25 -55 -53 -6 -39 1 rrcurveto
          hintmask 1101011110000000
          3 -98 -106 58 -89 hhcurveto
          -95 -42 -53 -66 -68 47 -46 83 -2 hvcurveto
          64 -2 73 37 54 41 rrcurveto
          hintmask 1101101110000000
          -7 38 38 -6 35 hhcurveto
          83 55 41 103 16 hvcurveto
          -437 -146 rmoveto
          -23 -27 6 19 hvcurveto
          hintmask 1101011110000000
          17 13 12 14 30 43 -10 -12 48 vhcurveto
          -19 -37 -38 -13 -23 hhcurveto
          207 -156 rmoveto
          8 56 7 43 1 8 rrcurveto
          hintmask 1010101110000000
          5 -19 -15 37 callsubr
          hintmask 1101101110000000
          -11 -88 rlineto
          -96 hlineto
          -4 -31 -4 -38 -2 -19 rrcurveto
          94 hlineto
          -27 -207 rlineto
          -1 -7 -1 -6 -7 vvcurveto
          -74 -1 51 -48 81 hhcurveto
          74 84 30 128 3 hvcurveto
          2 97 -63 54 -65 31 1 9 rcurveline
          105 hlineto
          37 30 18 34 10 -3 12 -6 14 hvcurveto
          -105 -272 rmoveto
          -59 -1 -33 -15 -26 hhcurveto
          -12 -13 15 25 hvcurveto
          1 27 7 57 9 64 39 -23 31 -41 -2 -50 rrcurveto
          endchar
        </CharString>
        <CharString name="G">
          91 -275 99 561 41 callsubr
          29 153 14 89 14 95 126 96 hintmask 11011111
          681 268 rmoveto
          -27 -53 -56 -40 -59 -31 22 163 rcurveline
          -140 hlineto
          -25 -218 rlineto
          -2 -14 -14 -1 -14 -17 callgsubr
          29 -43 -57 -73 -42 -34 -34 -35 -15 28 24 hvcurveto
          hintmask 10111111
          -24 callsubr
          72 121 -16 callsubr
          -156 67 -114 168 -23 hvcurveto
          -43 -39 -25 -45 -55 vvcurveto
          -93 67 -41 68 63 97 21 207 24 vhcurveto
          13 108 63 26 73 40 56 86 rlinecurve
          -345 -299 rmoveto
          -82 -10 -21 -8 -20 hhcurveto
          -23 -16 20 24 37 28 46 72 45 hvcurveto
          endchar
        </CharString>
        <CharString name="H">
          186 -6 92 -65 -21 761 -20 hstemhm
          45 70 hintmask 10110000
          521 415 rmoveto
          -24 -6 -52 -14 -52 -15 -50 -18 rlinecurve
          52 398 rlineto
          1 -9 -9 0 -28 hhcurveto
          -26 -50 -13 -18 -26 hvcurveto
          -51 -434 rlineto
          -90 -51 -61 -64 -78 25 callgsubr
          14 110 49 17 60 19 58 17 rlinecurve
          13 4 rlineto
          hintmask 01110000
          -39 -338 rlineto
          136 hlineto
          98 753 rlineto
          -48 callsubr
          -375 -545 rmoveto
          hintmask 10110000
          -53 -6 2 -54 -36 hhcurveto
          -27 -2 21 11 24 23 33 48 33 hvcurveto
          endchar
        </CharString>
        <CharString name="I">
          -49 callsubr
          19 callgsubr
          hintmask 11010100
          264 299 -96 callsubr
          hintmask 11101010
          -82 callsubr
          hintmask 11101100
          -58 callsubr
          hintmask 11101010
          -82 callgsubr
        </CharString>
        <CharString name="Iacute">
          -12 callgsubr
          275 -71 callsubr
          -138 -718 -102 callsubr
        </CharString>
        <CharString name="Icircumflex">
          -49 callsubr
          218 -20 19 callgsubr
          hintmask 11010110
          344 -75 callsubr
          -254 -560 -102 callsubr
        </CharString>
        <CharString name="Idieresis">
          -49 callsubr
          50 145 19 callgsubr
          -14 -14 callsubr
          hintmask 1101011011000000
          222 -95 callgsubr
          -198 -658 -96 callsubr
          hintmask 1110110101000000
          -82 callsubr
          hintmask 1110111011000000
          -58 callsubr
          hintmask 1110110101000000
          -82 callgsubr
        </CharString>
        <CharString name="Igrave">
          -12 callgsubr
          314 -64 callgsubr
          -177 -531 -102 callsubr
        </CharString>
        <CharString name="J">
          -121 -274 99 694 59 -59 195 -74 120 hstemhm
          21 99 hintmask 10101000
          542 311 rmoveto
          -25 -19 -61 -30 -75 -33 50 350 rcurveline
          11 77 43 -59 callsubr
          hintmask 11011000
          -50 callsubr
          35 37 8 15 37 hvcurveto
          -13 -83 -17 -135 -9 -81 -10 -81 rcurveline
          -109 -58 -110 -88 -10 -113 rrcurveto
          -96 -9 61 -81 95 hhcurveto
          70 98 46 141 19 hvcurveto
          33 234 111 45 52 17 48 36 rlinecurve
          -460 370 -86 callsubr
          76 -727 rmoveto
          -6 -47 -31 -18 -30 2 -29 2 -28 28 6 53 7 57 49 58 86 52 rrcurveto
          endchar
        </CharString>
        <CharString name="K">
          143 -6 82 577 108 -1 -20 hstemhm
          5 74 577 70 hintmask 11011000
          355 357 rmoveto
          66 -5 0 -42 4 -145 rrcurveto
          -97 3 44 -74 112 hhcurveto
          48 27 callgsubr
          rrcurveto
          -93 -31 -38 -46 -39 hhcurveto
          -108 106 259 63 -130 hvcurveto
          123 57 98 74 116 vvcurveto
          91 -72 25 -41 -62 -66 -39 -121 -19 vhcurveto
          -24 -155 -47 -8 -33 -6 rrcurveto
          23 323 rmoveto
          hintmask 10111000
          3 -14 -29 -31 callgsubr
          -5 -35 -26 -229 -19 -161 rrcurveto
          -103 -49 -74 -65 -87 vvcurveto
          -65 45 -49 72 85 81 44 152 23 vhcurveto
          hintmask 11011000
          317 463 rmoveto
          13 15 -9 -22 -37 -34 -39 -50 -32 hvcurveto
          5 16 5 18 5 19 rrcurveto
          51 13 2 35 26 hhcurveto
          -464 -491 rmoveto
          18 callsubr
          -27 -7 19 17 34 34 35 59 34 hvcurveto
          endchar
        </CharString>
        <CharString name="L">
          -75 -6 89 67 79 442 21 callsubr
          30 236 rlineto
          109 52 74 72 105 -85 callsubr
        </CharString>
        <CharString name="Lslash">
          -6 89 67 79 145 77 220 21 callsubr
          25 202 rlineto
          101 hlineto
          94 77 -116 hlineto
          67 47 42 60 79 -85 callsubr
        </CharString>
        <CharString name="M">
          271 -7 94 -94 107 -85 -21 768 -20 hstemhm
          11 71 hintmask 01011000
          660 -62 callsubr
          hintmask 00111000
          3 callgsubr
          hintmask 01011000
          -36 callsubr
          -503 -559 rmoveto
          hintmask 10011000
          -5 callgsubr
        </CharString>
        <CharString name="N">
          15 callsubr
          hstemhm
          hintmask 10100000
          534 216 -55 callsubr
          hintmask 01001000
          -28 callsubr
          hintmask 10010000
          -41 callsubr
        </CharString>
        <CharString name="NULL">
          -539 endchar
        </CharString>
        <CharString name="Ntilde">
          15 callsubr
          63 36 callgsubr
          hintmask 10100010
          332 7 callgsubr
          hintmask 10100100
          -72 callgsubr
          hintmask 10100010
          -53 callsubr
          rrcurveto
          246 -630 -55 callsubr
          hintmask 01001100
          -28 callsubr
          hintmask 10010100
          -41 callsubr
        </CharString>
        <CharString name="O">
          -31 callsubr
          -38 callgsubr
          hintmask 11110100
          903 462 -105 callsubr
          hintmask 11111000
          -91 callsubr
        </CharString>
        <CharString name="OE">
          689 -6 92 240 123 55 72 -11 196 -87 87 -25 callgsubr
          -59 219 -154 19 callsubr
          hintmask 1110111011000000
          1234 274 -106 callsubr
          hintmask 1101011011000000
          -61 callsubr
          -148 -134 -102 -136 7 vhcurveto
          2 -43 15 -36 22 -29 -14 -2 -14 0 -14 2 -79 callsubr
          -22 3 -19 -2 -16 -6 rrcurveto
          26 24 13 34 33 vvcurveto
          -80 callsubr
          139 99 83 116 53 vhcurveto
          -106 5 116 -93 151 hhcurveto
          -32 callgsubr
          hvcurveto
          -904 -126 rmoveto
          -73 callgsubr
          hvcurveto
          hintmask 1110111011000000
          -4 callsubr
          22 19 4 8 16 vhcurveto
          -11 -12 -7 -17 -3 -18 rrcurveto
          hintmask 1110110101000000
          -5 -34 13 -28 23 -21 rrcurveto
          -142 -11 -74 -157 -123 hhcurveto
          315 254 rmoveto
          1 -1 rlineto
          0 -1 -1 -1 vvcurveto
          endchar
        </CharString>
        <CharString name="Oacute">
          -31 callsubr
          256 -18 callgsubr
          403 -71 callsubr
          373 -555 -101 callsubr
        </CharString>
        <CharString name="Ocircumflex">
          -31 callsubr
          219 -18 callgsubr
          472 -75 callsubr
          257 -397 -101 callsubr
        </CharString>
        <CharString name="Odieresis">
          -31 callsubr
          45 callgsubr
          80 153 45 143 5 205 -114 145 hintmask 11111101
          350 -95 callgsubr
          313 -495 -106 callgsubr
          hintmask 11111110
          -46 callsubr
          -89 callgsubr
          vhcurveto
          -27 callgsubr
        </CharString>
        <CharString name="Ograve">
          -31 callsubr
          256 -18 callgsubr
          442 -64 callgsubr
          334 -368 -101 callsubr
        </CharString>
        <CharString name="Oslash">
          208 -39 -21 54 93 674 -20 60 -20 hstem
          80 153 vstem
          903 462 -101 callgsubr
          vhcurveto
          -9 hlineto
          126 420 rlineto
          -2 8 8 -1 8 hhcurveto
          83 43 64 59 55 -33 39 -47 21 hvcurveto
          18 59 rlineto
          -83 hlineto
          -12 -41 -17 1 rlineto
          -44 callsubr
          -137 56 -111 113 -40 hvcurveto
          -21 -69 14 callgsubr
          16 54 rlineto
          19 hlineto
          -40 callsubr
          hvcurveto
          96 -11 88 48 23 25 rrcurveto
          -643 -281 rmoveto
          -38 40 -11 71 61 vvcurveto
          180 99 185 115 14 vhcurveto
          75 -27 rmoveto
          7 -12 1 -11 -5 vvcurveto
          -2 -23 -12 -12 -14 -4 rrcurveto
          endchar
        </CharString>
        <CharString name="Otilde">
          -31 callsubr
          43 105 -30 100 -38 callgsubr
          hintmask 11101110
          327 7 callgsubr
          hintmask 11110110
          -72 callgsubr
          hintmask 11101101
          -53 callsubr
          rrcurveto
          620 -384 -105 callsubr
          hintmask 11110110
          -91 callsubr
        </CharString>
        <CharString name="P">
          80 -6 91 245 75 265 91 hstem
          19 90 54 140 84 67 51 141 vstem
          188 478 rmoveto
          -48 5 -31 26 37 vvcurveto
          91 120 34 82 -1 vhcurveto
          132 -2 65 -66 -3 -77 rrcurveto
          -100 -4 -67 -20 -62 hhcurveto
          -9 -73 rlineto
          -1 12 12 -1 12 hhcurveto
          146 101 90 113 110 -77 118 -238 -192 -120 -90 -126 -74 64 -63 93 -4 hvcurveto
          -12 -268 rmoveto
          -1 -7 0 -6 -7 vvcurveto
          -74 52 -48 81 74 84 30 128 95 -62 54 -65 31 vhcurveto
          19 130 24 142 1 14 rrcurveto
          5 -19 -17 37 callsubr
          104 -514 rmoveto
          -12 -13 15 25 24 7 56 9 66 hvcurveto
          38 -23 30 -40 -49 vvcurveto
          -59 -33 -15 -26 vhcurveto
          endchar
        </CharString>
        <CharString name="Q">
          190 -6 93 -76 -21 232 63 219 72 97 88 hstemhm
          50 153 193 205 -58 151 -23 44 hintmask 1011111010000000
          330 215 rmoveto
          3 9 8 4 9 hhcurveto
          33 28 -37 -44 29 hvcurveto
          -33 -30 -38 -21 -44 hhcurveto
          -73 callgsubr
          hvcurveto
          -4 callsubr
          -83 callsubr
          70 66 22 37 57 vhcurveto
          hintmask 0111111010000000
          -36 30 36 -27 45 hhcurveto
          47 48 24 60 30 -21 25 -26 12 hvcurveto
          2 -8 1 -8 -7 vvcurveto
          -24 -13 -17 -29 -19 -18 13 18 -17 vhcurveto
          hintmask 1011110100000000
          73 77 46 107 115 vvcurveto
          40 -16 33 -35 17 vhcurveto
          4 -10 -11 2 -11 hhcurveto
          -29 -32 -14 -20 -14 hvcurveto
          0 7 -18 -26 vvcurveto
          -69 -16 -78 -31 -63 vhcurveto
          38 -30 -33 32 -41 hhcurveto
          -17 -17 -6 -11 -13 hvcurveto
          endchar
        </CharString>
        <CharString name="R">
          130 -6 82 243 85 266 91 hstemhm
          17 74 -61 88 327 138 -67 140 hintmask 11101010
          199 479 rmoveto
          -46 6 -35 20 38 vvcurveto
          90 112 36 83 1 vhcurveto
          121 2 88 -63 -6 -86 -5 -69 -53 -51 -82 1 -11 -85 rcurveline
          hintmask 11110100
          57 -4 21 -15 2 -125 rrcurveto
          -66 1 8 -115 122 hhcurveto
          58 27 callgsubr
          -30 -91 -38 -46 -48 -2 -49 -2 2 42 -1 104 -1 74 -15 40 -61 12 rrcurveto
          hintmask 11101010
          107 29 39 92 4 60 rrcurveto
          106 7 -78 128 -244 hhcurveto
          -171 -140 -72 -146 -84 80 -51 75 -4 hvcurveto
          193 213 rmoveto
          3 -14 -21 3 -15 hhcurveto
          -37 -33 -11 -16 -25 hvcurveto
          -5 -32 -17 -138 -15 -117 rrcurveto
          hintmask 11110100
          -104 -48 -74 -65 -1 -88 rrcurveto
          -65 -1 46 -49 72 hhcurveto
          85 73 44 152 23 hvcurveto
          -139 -33 rmoveto
          -59 -9 -24 -13 -18 hhcurveto
          -27 -8 19 17 1 hvcurveto
          2 34 34 36 58 34 rrcurveto
          endchar
        </CharString>
        <CharString name="S">
          -51 -6 91 588 90 26 callgsubr
          493 504 -73 callsubr
        </CharString>
        <CharString name="Scaron">
          -51 -6 91 588 90 217 -20 26 callgsubr
          190 980 -61 callgsubr
          223 -476 -73 callsubr
        </CharString>
        <CharString name="T">
          -135 -4 91 449 59 47 119 hstemhm
          0 93 -52 74 hintmask 11110000
          472 642 rmoveto
          15 callgsubr
          -47 callsubr
          hintmask 11101000
          -6 callsubr
          10 callgsubr
          endchar
        </CharString>
        <CharString name="Thorn">
          -274 92 333 74 264 92 180 -20 hstem
          -41 90 13 137 0 89 0 71 vstem
          302 -11 callgsubr
          -3 -20 -9 -78 -10 -89 rrcurveto
          -116 -31 -69 -75 -95 vvcurveto
          -66 64 -58 81 -14 vhcurveto
          -4 -28 -2 -21 -1 -23 rrcurveto
          -4 vlineto
          -30 -237 rlineto
          -1 -10 -4 -35 -5 vvcurveto
          -83 62 -55 73 107 55 79 104 74 -28 87 -57 81 vhcurveto
          21 hlineto
          114 173 48 164 14 hvcurveto
          9 108 -92 106 -228 4 rrcurveto
          -21 -417 rmoveto
          -8 11 -9 12 -10 11 18 149 rcurveline
          18 142 rlineto
          116 -6 66 -52 -71 vvcurveto
          -104 -90 -32 -93 1 vhcurveto
          -153 126 rmoveto
          -6 -50 rlineto
          -38 9 -26 24 32 vvcurveto
          51 37 33 47 19 vhcurveto
          90 -385 rmoveto
          34 -48 31 -67 -62 vvcurveto
          -72 -33 -17 -23 -14 -19 20 32 8 0 4 1 6 vhcurveto
          endchar
        </CharString>
        <CharString name="U">
          -15 callsubr
          -22 callsubr
          hintmask 10111000
          381 223 -51 callsubr
          hintmask 10110100
          -69 callgsubr
          hintmask 10111000
          -89 callsubr
          hintmask 01110100
          -98 callgsubr
        </CharString>
        <CharString name="Uacute">
          -15 callsubr
          256 -8 callgsubr
          274 -71 callsubr
          -20 -794 -51 callsubr
          hintmask 10111010
          -69 callgsubr
          hintmask 10111100
          -89 callsubr
          hintmask 01111010
          -98 callgsubr
        </CharString>
        <CharString name="Ucircumflex">
          -15 callsubr
          219 -8 callgsubr
          343 -75 callsubr
          -136 -636 -51 callsubr
          hintmask 10111010
          -69 callgsubr
          hintmask 10111100
          -89 callsubr
          hintmask 01111010
          -98 callgsubr
        </CharString>
        <CharString name="Udieresis">
          -15 callsubr
          51 145 -22 callsubr
          -109 -14 callsubr
          hintmask 1011100110000000
          221 -95 callgsubr
          -80 -734 rmoveto
          -96 -11 -34 -42 -60 hhcurveto
          hintmask 1011110010000000
          -45 callsubr
          hintmask 1011101010000000
          -69 callgsubr
          hintmask 1011110010000000
          -89 callsubr
          hintmask 0111101010000000
          -98 callgsubr
        </CharString>
        <CharString name="Ugrave">
          -15 callsubr
          256 -8 callgsubr
          313 -64 callgsubr
          -59 -607 -51 callsubr
          hintmask 10111010
          -69 callgsubr
          hintmask 10111100
          -89 callsubr
          hintmask 01111010
          -98 callgsubr
        </CharString>
        <CharString name="V">
          134 21 -21 659 106 hstem
          388 161 rmoveto
          -6 hlineto
          -11 161 -8 171 -9 96 -14 150 -46 25 -62 1 -82 1 -58 -45 -52 -126 -12 -30 -17 -49 -3 -10 rrcurveto
          19 -11 48 -23 0 vvcurveto
          53 16 40 134 53 hhcurveto
          28 7 -14 -58 5 hvcurveto
          5 -59 32 -443 6 -85 rrcurveto
          166 hlineto
          55 145 66 173 51 132 105 49 81 54 10 90 10 84 -58 31 -41 3 -110 8 -29 -94 -32 -89 rrcurveto
          99 -45 rmoveto
          19 48 14 35 8 17 rrcurveto
          14 6 8 9 12 hhcurveto
          14 13 -11 -18 -33 -37 -31 -57 -30 hvcurveto
          endchar
        </CharString>
        <CharString name="W">
          288 -6 97 590 80 1 -20 hstemhm
          0 68 0 142 -82 147 422 141 hintmask 11001010
          351 223 rmoveto
          -71 -9 -23 -60 -57 hhcurveto
          -42 -10 34 33 12 1 11 2 10 hvcurveto
          hintmask 11010110
          56 408 6 17 14 vvcurveto
          98 -59 32 -71 -77 -68 -48 -85 -68 43 -59 64 -46 vhcurveto
          -37 -282 rlineto
          -1 -9 -1 -9 -9 vvcurveto
          -89 52 -63 99 70 60 28 58 37 vhcurveto
          -62 31 58 -24 57 hhcurveto
          198 51 225 164 25 hvcurveto
          24 158 6 90 2 60 rrcurveto
          hintmask 10110110
          41 1 -14 30 -43 hhcurveto
          -25 -46 -9 -15 -25 hvcurveto
          9 -38 3 -48 -1 -45 rrcurveto
          -129 -3 -36 -387 -121 hhcurveto
          -40 -10 35 27 85 19 43 51 399 hvcurveto
          5 1 4 4 vvcurveto
          36 -24 14 -40 -27 -39 -9 -6 -13 vhcurveto
          -297 -186 rmoveto
          -31 30 -19 34 29 vvcurveto
          hintmask 11010110
          20 9 26 28 13 10 -9 -28 vhcurveto
          -1 -20 -1 -14 -3 -28 rrcurveto
          endchar
        </CharString>
        <CharString name="X">
          197 -6 91 -91 104 561 114 -10 -20 hstemhm
          10 76 hintmask 10101000
          417 494 rmoveto
          -49 154 -35 109 -69 20 -50 -4 rlinecurve
          -77 -6 -37 -44 -17 -26 13 -72 rcurveline
          18 23 29 34 25 5 47 10 5 -55 20 -58 67 -224 rcurveline
          -17 -25 -16 -25 -15 -24 rrcurveto
          -132 -26 -117 -41 -124 vvcurveto
          -64 57 -37 49 78 42 81 76 44 vhcurveto
          60 102 21 -70 rlineto
          -166 50 60 -23 89 hhcurveto
          67 62 51 18 12 hvcurveto
          -13 74 rlineto
          -12 -16 -30 -40 -46 hhcurveto
          -34 -16 17 127 -43 hvcurveto
          -14 41 -17 53 -22 68 48 77 rcurveline
          137 26 115 35 12 122 rrcurveto
          hintmask 10011000
          71 7 -60 41 -52 hhcurveto
          -78 -49 -75 -76 -44 hvcurveto
          63 -65 rmoveto
          hintmask 01101000
          67 40 23 45 39 hhcurveto
          24 12 -12 -15 -41 -59 -25 -79 -19 hvcurveto
          -427 -449 rmoveto
          -24 -12 12 15 39 54 25 73 18 hvcurveto
          -65 -38 -26 -44 -27 hhcurveto
          endchar
        </CharString>
        <CharString name="Y">
          28 callsubr
          17 callgsubr
          hintmask 11110000
          729 270 -67 callgsubr
          hintmask 11101000
          -86 callgsubr
        </CharString>
        <CharString name="Yacute">
          28 callsubr
          255 -20 17 callgsubr
          hintmask 11111000
          335 -71 callsubr
          267 -747 -67 callgsubr
          hintmask 11110100
          -86 callgsubr
        </CharString>
        <CharString name="Ydieresis">
          28 callsubr
          50 145 17 callgsubr
          -61 103 -103 -14 callsubr
          hintmask 1111000110000000
          282 -95 callgsubr
          207 -687 -51 callgsubr
          hintmask 1111100010000000
          -30 callsubr
          hintmask 1111001010000000
          -41 callgsubr
          hintmask 1111100010000000
          -8 callsubr
          hintmask 1111010010000000
          -86 callgsubr
        </CharString>
        <CharString name="Z">
          26 callsubr
          hstem
          30 87 386 87 vstem
          210 119 24 callsubr
          1 2 3 6 -74 callgsubr
        </CharString>
        <CharString name="Zcaron">
          26 callsubr
          219 -20 hstem
          30 87 386 87 vstem
          174 980 -61 callgsubr
          -44 -861 24 callsubr
          4 8 -74 callgsubr
        </CharString>
        <CharString name="_0001">
          -164 124 60 85 86 -1 86 85 59 hstemhm
          30 63 299 63 hintmask 11011100
          197 355 rmoveto
          -109 -58 -69 -69 -46 29 -47 60 hvcurveto
          76 -2 39 45 26 82 21 -11 15 -16 5 -22 3 -12 -3 -13 -6 -9 -12 -18 -16 -1 -2 -6 rrcurveto
          -17 -3 32 0 5 hhcurveto
          49 33 42 41 5 hvcurveto
          11 80 -51 40 -61 17 rrcurveto
          hintmask 10111100
          1 3 1 4 3 vvcurveto
          110 58 69 69 45 -30 47 -60 hvcurveto
          -75 3 -39 -46 -27 -81 -20 11 -16 16 -5 22 -2 11 2 13 7 10 12 18 16 1 1 6 rrcurveto
          16 3 -31 0 -5 hhcurveto
          -50 -32 -41 -41 -6 hvcurveto
          -10 -80 50 -39 61 -18 rrcurveto
          hintmask 11011100
          hintmask 10111100
          106 75 rmoveto
          72 18 14 13 23 hhcurveto
          21 11 -15 -16 -29 -27 -25 -49 hvcurveto
          hintmask 11011100
          -137 -171 rmoveto
          -73 -17 -14 -12 -24 hhcurveto
          -20 -11 14 17 29 26 25 50 hvcurveto
          endchar
        </CharString>
        <CharString name="a">
          -33 callsubr
          1 callgsubr
          hintmask 10110000
          613 225 -97 callgsubr
          hintmask 01110000
          -78 callgsubr
          hintmask 10110000
          -93 callsubr
        </CharString>
        <CharString name="aacute">
          -33 callsubr
          256 -7 callgsubr
          267 -72 callsubr
          219 -512 -97 callsubr
        </CharString>
        <CharString name="acircumflex">
          -33 callsubr
          219 -7 callgsubr
          336 -75 callgsubr
          103 -354 -97 callsubr
        </CharString>
        <CharString name="acute">
          -301 534 -21 224 -20 hstem
          52 -72 callsubr
          endchar
        </CharString>
        <CharString name="adieresis">
          -33 callsubr
          51 145 1 callgsubr
          -29 -14 callsubr
          hintmask 10110110
          214 532 rmoveto
          -52 callsubr
          -52 callgsubr
          hvcurveto
          240 hmoveto
          -56 callgsubr
          -56 callsubr
          hvcurveto
          159 -307 -94 callsubr
          hintmask 10111010
          -71 callgsubr
          hintmask 01111010
          -78 callgsubr
          hintmask 10111010
          -93 callsubr
        </CharString>
        <CharString name="ae">
          475 -6 90 319 78 hstem
          40 141 500 121 vstem
          572 12 callgsubr
          -34 -33 -7 -12 -31 hvcurveto
          1 9 rlineto
          -58 callgsubr
          9 -22 -31 8 -39 -74 callsubr
          69 60 31 77 39 vhcurveto
          -63 34 64 -45 94 -103 callsubr
          -189 44 rmoveto
          -2 -13 -2 -14 -14 vvcurveto
          -6 -52 rlineto
          -93 callsubr
        </CharString>
        <CharString name="agrave">
          -33 callsubr
          256 -7 callgsubr
          306 -64 callsubr
          180 -325 -97 callsubr
        </CharString>
        <CharString name="ampersand">
          118 -9 90 595 88 hstemhm
          40 140 -3 133 78 203 -62 110 hintmask 11101000
          388 -171 rmoveto
          85 -4 118 42 145 vvcurveto
          51 -15 51 -23 51 vhcurveto
          44 60 29 64 10 49 rrcurveto
          hintmask 11010100
          2 11 1 10 10 vvcurveto
          57 -36 40 -47 -69 -4 -75 0 vhcurveto
          30 -1 16 -28 -33 vvcurveto
          -23 -4 -28 -16 -33 vhcurveto
          -38 62 -45 60 -37 56 rrcurveto
          84 68 60 71 79 vvcurveto
          69 -61 54 -91 -135 -69 -89 -94 -52 17 -49 30 -58 vhcurveto
          -122 -72 -45 -53 -15 -89 rrcurveto
          hintmask 11101000
          -2 -10 0 -10 -10 vvcurveto
          -94 73 -93 135 60 64 16 46 66 vhcurveto
          4 -14 4 -14 2 -14 10 -63 -28 -37 -42 -21 rrcurveto
          -2 786 rmoveto
          34 -1 28 -25 -4 -39 -7 -47 -47 -40 -43 -33 rrcurveto
          hintmask 11011000
          -22 41 -15 37 35 vvcurveto
          3 47 28 26 45 -1 rrcurveto
          -99 -359 rmoveto
          47 -74 43 -61 30 -58 rrcurveto
          -26 -34 -31 -17 -52 hhcurveto
          hintmask 11101000
          -77 -33 57 50 hvcurveto
          4 1 4 4 vvcurveto
          5 38 13 37 77 60 rrcurveto
          endchar
        </CharString>
        <CharString name="approxequal">
          116 98 97 98 hstem
          98 333 -66 callgsubr
          44 -195 -66 callgsubr
          endchar
        </CharString>
        <CharString name="aring">
          9 -29 callsubr
          108 98 56 1 callgsubr
          45 56 98 56 hintmask 10111110
          613 225 -92 callgsubr
          -7 2 -7 3 -9 2 rrcurveto
          30 19 19 33 37 38 callgsubr
          -33 16 -30 24 -19 vhcurveto
          -134 -21 -92 -106 -157 vvcurveto
          -126 92 -74 93 55 -13 callgsubr
          hintmask 01111110
          -77 callgsubr
          -292 384 rmoveto
          -26 callsubr
          28 -434 rmoveto
          hintmask 10111110
          -93 callsubr
        </CharString>
        <CharString name="asciicircum">
          228 -21 513 -20 hstem
          330 527 rmoveto
          143 -320 rlineto
          97 hlineto
          -218 513 -292 -513 rlineto
          97 hlineto
          endchar
        </CharString>
        <CharString name="asciitilde">
          -114 311 98 hstem
          18 333 -66 callgsubr
          endchar
        </CharString>
        <CharString name="asterisk">
          -150 514 78 171 -20 hstemhm
          126 82 -79 77 hintmask 11100000
          hintmask 11010000
          204 615 rmoveto
          5 108 1 33 -27 14 -28 -10 rlinecurve
          -25 -11 -9 -30 17 -21 rrcurveto
          70 -83 rmoveto
          102 38 28 13 4 32 -16 20 rlinecurve
          -19 20 -33 -4 -14 -23 rrcurveto
          -60 -99 rmoveto
          -95 42 -27 11 -30 -18 -3 -28 rlinecurve
          1 -27 21 -24 31 10 rrcurveto
          109 33 rmoveto
          66 -83 20 -22 31 4 14 24 rlinecurve
          15 23 -12 32 -29 3 rrcurveto
          -108 18 rmoveto
          hintmask 11100000
          -68 -84 -18 -23 7 -29 29 -11 rlinecurve
          26 -7 28 18 30 vvcurveto
          endchar
        </CharString>
        <CharString name="at">
          207 -76 65 56 69 250 69 64 70 hstem
          45 77 62 94 368 75 vstem
          401 567 rmoveto
          -171 -185 -111 -247 -192 156 -93 151 43 43 8 15 41 hvcurveto
          1 2 1 4 5 vvcurveto
          19 -7 30 -5 3 vhcurveto
          -8 -25 -27 -13 -60 hhcurveto
          -131 -104 95 132 188 125 93 156 146 97 -78 -143 -100 -33 -62 -40 -26 -9 13 24 31 19 145 13 87 hvcurveto
          6 -10 -16 4 -16 hhcurveto
          -12 -12 -2 -4 -11 hvcurveto
          7 -22 -34 8 -40 hhcurveto
          -159 -52 -136 -80 -2 hvcurveto
          -110 -3 61 -62 90 hhcurveto
          63 45 41 51 24 hvcurveto
          -73 11 42 -16 43 hhcurveto
          92 69 96 139 203 -173 81 -147 hvcurveto
          44 -342 rmoveto
          -14 -71 -39 -28 -34 -2 -45 -3 -37 30 2 68 rrcurveto
          84 2 52 61 81 hhcurveto
          16 18 -3 -3 16 hvcurveto
          endchar
        </CharString>
        <CharString name="atilde">
          -33 callsubr
          43 105 -30 100 1 callgsubr
          hintmask 10110100
          518 697 rmoveto
          -34 -14 -25 -34 -35 hhcurveto
          hintmask 10101100
          -53 callsubr
          44 -26 rcurveline
          -25 callsubr
          hintmask 10110100
          -53 callgsubr
          51 -447 -97 callgsubr
          hintmask 01110100
          -78 callgsubr
          hintmask 10110100
          -93 callsubr
        </CharString>
        <CharString name="b">
          -27 -6 -10 callsubr
          -6 -46 -39 -348 -12 -93 -8 -59 -3 -29 -2 -40 -2 -46 37 -92 141 -6 rrcurveto
          -9 callsubr
          -16 -127 rmoveto
          34 15 27 34 -20 callgsubr
        </CharString>
        <CharString name="backslash">
          -19 18 callgsubr
          20 22 callgsubr
          397 -1 callsubr
          -397 39 callgsubr
        </CharString>
        <CharString name="bar">
          -286 18 callgsubr
          123 22 callgsubr
          -98 -861 rlineto
          82 hlineto
          102 39 callgsubr
        </CharString>
        <CharString name="braceleft">
          -160 -145 -21 hstem
          46 385 rmoveto
          7 -38 24 -35 38 -14 -44 -12 -36 -37 -15 -39 23 -11 rcurveline
          40 20 10 -2 10 hhcurveto
          12 5 -15 -27 -1 hvcurveto
          -2 -32 -29 -175 -3 -58 rrcurveto
          -63 -2 44 -33 57 hhcurveto
          48 47 27 9 15 hvcurveto
          44 vlineto
          -3 -6 -23 -5 -12 hhcurveto
          -29 2 -11 9 1 37 rrcurveto
          0 19 145 13 115 vhcurveto
          3 0 4 1 3 vhcurveto
          1 37 -17 24 -27 11 34 9 26 24 6 52 11 91 14 105 4 40 6 57 10 12 35 3 11 1 23 -6 4 -3 11 44 rcurveline
          -12 10 -35 23 -45 3 -76 5 -44 -40 -8 -60 -8 -57 -10 -107 -6 -60 rrcurveto
          -54 -6 -9 -30 -18 hhcurveto
          -10 -10 -2 40 -11 hvcurveto
          endchar
        </CharString>
        <CharString name="braceright">
          -159 766 -20 hstem
          101 209 vstem
          332 401 rmoveto
          -40 -20 -10 2 -10 hhcurveto
          -12 -5 15 27 1 hvcurveto
          2 32 29 175 3 58 rrcurveto
          63 2 -44 33 -57 hhcurveto
          -48 -47 -27 -9 -15 hvcurveto
          -44 vlineto
          3 6 23 5 12 hhcurveto
          29 -2 11 -9 -1 -37 rrcurveto
          0 -19 -145 -13 -115 vhcurveto
          -3 0 -4 -1 -3 vhcurveto
          -1 -38 19 -25 28 -10 -34 -11 -27 -29 -6 -44 -10 -81 -13 -115 -3 -40 -6 -57 -11 -12 -35 -3 -11 -1 -23 6 -4 3 -11 -44 rcurveline
          12 -10 35 -23 45 -3 76 -5 42 40 10 60 7 47 11 117 6 60 rrcurveto
          54 6 9 30 18 hhcurveto
          10 10 2 -40 11 hvcurveto
          25 11 -7 38 -25 36 -38 13 rlinecurve
          42 13 35 36 15 39 rrcurveto
          endchar
        </CharString>
        <CharString name="bracketleft">
          -93 -125 75 735 75 hstem
          322 -50 rmoveto
          -211 hlineto
          95 735 rlineto
          209 hlineto
          11 75 rlineto
          -292 -1 hlineto
          -116 -882 rlineto
          1 -2 294 hlineto
          endchar
        </CharString>
        <CharString name="bracketright">
          -91 -124 75 735 75 hstem
          18 -124 rmoveto
          292 1 hlineto
          116 882 rlineto
          -1 2 -294 hlineto
          -9 -75 rlineto
          211 hlineto
          -95 -735 rlineto
          -209 hlineto
          endchar
        </CharString>
        <CharString name="breve">
          527 77 -77 173 hstemhm
          hintmask 01000000
          430 700 rmoveto
          hintmask 10000000
          -60 -10 -44 -36 -65 hhcurveto
          hintmask 01000000
          -66 -44 36 60 7 hvcurveto
          -57 hlineto
          -98 -18 72 -75 98 hhcurveto
          97 77 56 117 10 hvcurveto
          endchar
        </CharString>
        <CharString name="brokenbar">
          -319 -78 -21 860 -20 hstem
          116 22 callgsubr
          -41 -366 14 callgsubr
          41 366 rlineto
          -136 -474 rmoveto
          -44 -386 14 callgsubr
          44 386 rlineto
          endchar
        </CharString>
        <CharString name="bullet">
          271 210 hstem
          180 210 vstem
          285 481 3 callsubr
          endchar
        </CharString>
        <CharString name="c">
          -70 -6 89 321 77 hstem
          36 139 vstem
          295 481 rmoveto
          -122 -137 -99 -168 -132 95 -91 123 3 hvcurveto
          186 5 122 160 28 57 -11 23 -12 20 -16 12 -36 callgsubr
          hvcurveto
          endchar
        </CharString>
        <CharString name="caron">
          563 -21 158 -20 hstem
          145 700 -61 callgsubr
          endchar
        </CharString>
        <CharString name="ccedilla">
          -70 -184 114 0 38 -38 153 321 77 hstemhm
          36 139 121 73 hintmask 10011100
          196 -71 rmoveto
          33 callsubr
          -49 callgsubr
          hintmask 01011100
          43 callsubr
          -6 -1 11 28 172 18 113 148 27 55 rlinecurve
          -11 23 -12 20 -16 12 rrcurveto
          hintmask 00111100
          -36 callgsubr
          -122 -137 -99 -168 -120 79 -86 106 -13 hvcurveto
          endchar
        </CharString>
        <CharString name="cedilla">
          -184 114 0 38 69 -20 hstemhm
          336 73 hintmask 10110000
          307 -33 rmoveto
          26 70 rlineto
          -56 hlineto
          -41 -108 rlineto
          33 callsubr
          -49 callgsubr
          hintmask 01110000
          43 callsubr
          endchar
        </CharString>
        <CharString name="cent">
          18 -263 -21 279 100 666 -20 hstem
          20 138 174 123 vstem
          497 230 rmoveto
          -51 -97 -91 -40 -66 2 -10 1 rcurveline
          33 292 rlineto
          15 -14 5 -23 -24 vvcurveto
          -21 -4 -23 -6 -21 vhcurveto
          44 89 29 74 60 -50 44 -83 10 hvcurveto
          32 282 rlineto
          -76 hlineto
          -32 -283 rlineto
          -111 -19 -115 -95 -150 vvcurveto
          -111 80 -81 92 -22 vhcurveto
          -32 -284 rlineto
          76 hlineto
          31 279 169 10 73 117 28 64 rlinecurve
          -331 -63 rmoveto
          -29 22 -19 37 56 vvcurveto
          83 37 56 42 19 vhcurveto
          endchar
        </CharString>
        <CharString name="circumflex">
          542 -21 179 -20 hstem
          290 -75 callgsubr
          endchar
        </CharString>
        <CharString name="colon">
          -248 -19 163 187 163 hstemhm
          49 163 -122 163 hintmask 11010000
          171 494 -54 callgsubr
          -41 -350 rmoveto
          hintmask 11100000
          -29 callgsubr
        </CharString>
        <CharString name="comma">
          -155 154 -20 hstem
          116 168 vstem
          197 -35 callgsubr
        </CharString>
        <CharString name="copyright">
          171 21 68 62 87 240 72 53 68 hstem
          30 68 54 106 354 68 vstem
          -35 callsubr
          -68 vmoveto
          11 callgsubr
          11 callsubr
          hvcurveto
          173 -295 rmoveto
          -46 -48 -51 -21 -50 -1 -61 -1 -59 38 -2 76 -2 85 45 41 49 1 70 2 11 -66 -27 -59 rrcurveto
          40 1 74 13 70 vvcurveto
          63 -62 48 -98 -113 -93 -84 -127 -123 101 -66 106 1 vhcurveto
          90 1 81 67 19 39 rrcurveto
          endchar
        </CharString>
        <CharString name="currency">
          139 95 -21 86 73 226 73 91 -20 hstem
          169 73 226 73 vstem
          618 569 rmoveto
          -53 54 -113 -116 rlineto
          16 -28 -33 9 -37 hhcurveto
          -36 -32 -9 -15 -26 hvcurveto
          -115 113 -54 -53 113 -110 rlineto
          -22 -32 -13 -39 -42 vvcurveto
          -40 11 -37 21 -31 vhcurveto
          -111 -108 54 -53 111 110 rlineto
          -16 28 33 -10 38 hhcurveto
          38 34 10 17 28 hvcurveto
          110 -113 53 54 -109 110 rlineto
          21 31 12 38 40 vvcurveto
          41 -12 38 -22 31 vhcurveto
          -265 -112 rmoveto
          64 49 50 63 64 50 -50 -64 -63 -50 -49 -64 -63 -49 49 63 vhcurveto
          endchar
        </CharString>
        <CharString name="d">
          -33 callsubr
          280 -7 callgsubr
          385 469 rmoveto
          7 -21 -25 5 -31 -74 callsubr
          54 -13 callgsubr
          hintmask 01111000
          -38 18 38 -26 63 hhcurveto
          38 97 18 153 44 hvcurveto
          -5 15 -9 20 -25 24 rrcurveto
          hintmask 10111000
          -108 -34 -42 -31 -29 hhcurveto
          -15 -15 9 31 45 48 342 36 callsubr
          hvcurveto
          24 callgsubr
          -66 -546 -19 callsubr
        </CharString>
        <CharString name="dagger">
          -78 -21 860 -20 hstem
          262 -99 rmoveto
          57 509 -12 callsubr
          -58 -511 rlineto
          endchar
        </CharString>
        <CharString name="daggerdbl">
          -78 -21 860 -20 hstem
          472 265 rmoveto
          -171 -16 18 161 -12 callsubr
          -19 -164 -176 17 -12 -86 182 17 -33 -295 14 callgsubr
          33 293 166 -15 rlineto
          endchar
        </CharString>
        <CharString name="degree">
          483 63 152 63 hstem
          292 22 callgsubr
          -76 -69 -62 -77 -9 hvcurveto
          -76 -7 57 -63 76 hhcurveto
          77 68 63 76 7 hvcurveto
          77 9 -56 62 -77 hhcurveto
          -6 -63 rmoveto
          42 30 -34 -42 -5 hvcurveto
          -42 -3 -38 -34 -42 hhcurveto
          -42 -30 34 42 3 hvcurveto
          42 5 38 34 42 hhcurveto
          endchar
        </CharString>
        <CharString name="dieresis">
          532 145 hstem
          127 -14 callsubr
          vstem
          199 677 -104 callsubr
          endchar
        </CharString>
        <CharString name="divide">
          -81 112 163 56 86 45 163 hstemhm
          150 163 -122 163 hintmask 11101000
          272 625 -54 callgsubr
          -250 -208 31 callsubr
          -263 -142 rmoveto
          hintmask 11110000
          -29 callgsubr
        </CharString>
        <CharString name="dollar">
          -51 -9 -21 26 88 589 87 1 -20 hstemhm
          141 139 35 135 -5 75 hintmask 11011010
          496 504 rmoveto
          17 35 8 35 -1 33 -2 48 -20 42 -37 28 15 36 rcurveline
          -65 hlineto
          -4 -9 rlineto
          hintmask 11101100
          5 -19 -20 3 -23 hhcurveto
          -129 -78 -76 -98 3 hvcurveto
          3 -72 46 -74 48 -86 -91 -215 rcurveline
          -7 14 -4 17 -1 18 -1 23 7 27 26 33 -89 2 rcurveline
          -22 -29 -11 -31 2 -35 2 -48 20 -50 38 -35 -32 -75 rcurveline
          65 hlineto
          18 42 rlineto
          -10 24 29 -6 32 hhcurveto
          108 103 74 124 -4 hvcurveto
          -3 89 -52 69 -53 93 84 198 rcurveline
          hintmask 11101010
          12 -14 7 -17 -18 vvcurveto
          1 -31 -10 -34 -15 -25 rrcurveto
          -117 5 rmoveto
          -13 24 -10 25 -1 25 rrcurveto
          62 -2 35 28 43 hhcurveto
          6 6 0 -1 5 hvcurveto
          -99 -386 rmoveto
          11 -21 10 -22 9 -22 rrcurveto
          hintmask 11101100
          7 -18 3 -15 1 -17 rrcurveto
          -58 2 -44 -29 -45 hhcurveto
          -12 -12 3 6 -12 hvcurveto
          endchar
        </CharString>
        <CharString name="dotaccent">
          528 102 hstem
          248 102 vstem
          248 630 rmoveto
          -102 102 102 vlineto
          endchar
        </CharString>
        <CharString name="dotlessi">
          34 callsubr
          394 -20 hstem
          31 134 -100 callgsubr
        </CharString>
        <CharString name="e">
          8 callsubr
          -9 callgsubr
          233 165 rmoveto
          -103 callgsubr
        </CharString>
        <CharString name="eacute">
          4 callgsubr
          226 -72 callsubr
          -120 -572 rmoveto
          -103 callgsubr
        </CharString>
        <CharString name="ecircumflex">
          8 callsubr
          219 -20 -9 callgsubr
          295 -75 callgsubr
          -236 -414 rmoveto
          -103 callgsubr
        </CharString>
        <CharString name="edieresis">
          8 callsubr
          45 callgsubr
          26 139 -64 143 96 123 -123 145 hintmask 11101010
          173 677 -104 callsubr
          -180 -512 rmoveto
          hintmask 11110100
          -103 callgsubr
        </CharString>
        <CharString name="egrave">
          4 callgsubr
          265 -64 callsubr
          -159 -385 rmoveto
          -103 callgsubr
        </CharString>
        <CharString name="eight">
          72 0 94 573 94 hstemhm
          45 113 -53 143 164 154 -112 112 hintmask 11010100
          439 400 rmoveto
          83 49 46 57 -2 77 rrcurveto
          119 -2 -106 59 -105 hhcurveto
          -136 -114 -74 -130 2 hvcurveto
          1 -59 36 -48 46 -42 rrcurveto
          hintmask 11100100
          -90 -46 -55 -67 2 -100 2 -82 62 -104 162 -9 207 -11 87 116 -2 116 -2 88 -53 41 -69 50 rrcurveto
          -90 267 rmoveto
          45 58 -28 -58 2 hvcurveto
          -38 -12 -40 -86 -43 vhcurveto
          hintmask 11011000
          -79 58 -28 19 -1 45 rrcurveto
          50 50 35 51 vhcurveto
          -63 -573 rmoveto
          hintmask 11101000
          -66 1 -61 38 -1 76 -1 48 41 51 74 33 78 -54 61 -26 1 -71 1 -55 -56 -42 -71 1 rrcurveto
          endchar
        </CharString>
        <CharString name="ellipsis">
          161 -19 163 hstem
          60 163 61 163 61 163 cntrmask 01110000
          141 144 -54 callgsubr
          224 hmoveto
          -85 callgsubr
          224 hmoveto
          -29 callgsubr
        </CharString>
        <CharString name="emdash">
          313 86 hstem
          -80 399 rmoveto
          -10 -86 rlineto
          779 0 callsubr
          endchar
        </CharString>
        <CharString name="endash">
          313 86 hstem
          100 399 rmoveto
          -10 -86 rlineto
          409 0 callsubr
          endchar
        </CharString>
        <CharString name="equal">
          -15 215 86 94 86 hstem
          31 395 rmoveto
          472 0 callsubr
          -471 hlineto
          439 -266 rmoveto
          11 86 rlineto
          -471 hlineto
          -13 -86 rlineto
          endchar
        </CharString>
        <CharString name="eth">
          -29 callsubr
          77 281 -7 callgsubr
          574 403 rmoveto
          74 77 -126 hlineto
          35 271 rlineto
          24 callgsubr
          -29 -241 rlineto
          -66 hlineto
          1 -4 -4 0 -4 hhcurveto
          -15 hlineto
          -15 -1 hlineto
          -145 -12 -103 -108 -166 vvcurveto
          -126 92 -74 93 54 -13 callgsubr
          hintmask 01111000
          -38 18 38 -26 63 hhcurveto
          38 97 18 153 44 hvcurveto
          -5 15 -9 20 -25 24 rrcurveto
          hintmask 10111000
          -108 -34 -42 -31 -29 hhcurveto
          -15 -15 9 31 25 15 114 18 138 hvcurveto
          -163 -228 -19 callsubr
        </CharString>
        <CharString name="exclam">
          -195 -19 163 697 -20 hstem
          39 163 vstem
          92 262 rmoveto
          107 hlineto
          124 524 rlineto
          43 8 -49 12 -46 hhcurveto
          -30 -40 -5 -5 -10 hvcurveto
          -36 -687 rmoveto
          -29 callgsubr
        </CharString>
        <CharString name="exclamdown">
          -275 -338 -21 697 163 hstem
          72 163 vstem
          154 338 rmoveto
          45 36 37 45 45 -36 36 -45 -45 -37 -36 -45 -45 37 -37 45 hvcurveto
          28 -118 rmoveto
          -107 hlineto
          -124 -524 rlineto
          -43 -8 49 -12 46 hhcurveto
          30 40 5 5 10 hvcurveto
          endchar
        </CharString>
        <CharString name="f">
          -136 -304 92 887 86 hstem
          34 callgsubr
          vstem
          127 271 rmoveto
          -70 callgsubr
          91 18 87 74 33 156 -3 7 -26 21 -18 10 rrcurveto
          -115 -37 -50 -86 -89 28 callgsubr
          25 241 rlineto
          -30 callgsubr
          118 -122 rmoveto
          -40 callgsubr
        </CharString>
        <CharString name="fi">
          95 -304 92 205 91 517 160 -86 86 -1 -20 hstemhm
          34 callgsubr
          50 159 hintmask 11100111
          446 226 rmoveto
          -84 -35 -47 -58 -73 28 callgsubr
          25 241 rlineto
          -57 callgsubr
          48 10 48 25 38 45 14 -57 49 -31 66 -87 callsubr
          rrcurveto
          -77 callsubr
          97 158 rmoveto
          44 36 35 44 hvcurveto
          hintmask 11001111
          44 -36 36 -44 -44 -35 -36 -44 vhcurveto
          hintmask 11100111
          -44 35 -35 44 vhcurveto
          -286 -122 rmoveto
          hintmask 11010111
          -40 callgsubr
        </CharString>
        <CharString name="five">
          67 0 101 308 88 142 121 22 -20 hstemhm
          396 158 -158 174 hintmask 11110100
          281 647 rmoveto
          -3 52 50 -5 33 hhcurveto
          115 49 16 127 -10 hvcurveto
          -52 -22 -192 -1 -113 1 rrcurveto
          -43 hlineto
          -63 -382 rlineto
          20 38 45 11 44 hhcurveto
          89 73 -46 -102 -92 -59 -68 -85 -71 -53 30 73 -41 hvcurveto
          -67 -107 rlineto
          -90 85 102 -7 41 hhcurveto
          hintmask 11111000
          188 118 96 180 169 -154 52 -90 -17 -14 -1 -5 -22 hvcurveto
          endchar
        </CharString>
        <CharString name="fl">
          170 -304 92 206 90 591 86 hstem
          34 callgsubr
          262 65 vstem
          268 344 rmoveto
          -57 callgsubr
          51 10 49 27 40 50 14 -65 55 -32 75 5 -18 callsubr
          -37 callgsubr
          -42 -359 rlineto
          -91 -36 -48 -63 -76 28 callgsubr
          39 376 rmoveto
          -26 callgsubr
          334 34 -37 callsubr
          -378 -457 -43 callsubr
        </CharString>
        <CharString name="florin">
          -253 -21 637 80 124 194 -87 87 hstemhm
          501 76 hintmask 11011000
          574 567 rmoveto
          2 15 13 callgsubr
          -18 -151 rlineto
          -117 hlineto
          -12 -80 rlineto
          119 hlineto
          -29 -242 -41 -341 -8 -54 rrcurveto
          136 hlineto
          77 637 rlineto
          178 -10 callgsubr
          hintmask 11101000
          -9 -1 -10 -1 -11 vhcurveto
          endchar
        </CharString>
        <CharString name="four">
          69 0 102 145 117 hstem
          285 137 vstem
          322 364 rmoveto
          -167 hlineto
          49 83 98 158 7 67 7 65 -41 32 -59 -1 -36 -1 -40 -15 -30 -29 32 -11 26 -23 -3 -35 -4 -49 -22 -91 -126 -164 -6 -8 35 -78 10 -15 1 -3 rcurveline
          250 3 -16 -96 rlineto
          -2 -10 0 -10 -9 vvcurveto
          -73 50 -51 79 78 75 39 126 14 vhcurveto
          14 124 -63 47 -75 18 20 109 24 122 8 56 41 callgsubr
          2 -41 9 -35 hhcurveto
          20 callgsubr
          hvcurveto
          121 -554 rmoveto
          -31 -5 -19 -26 -27 hhcurveto
          -13 -15 9 33 11 7 42 10 55 hvcurveto
          43 -4 30 -20 -11 -69 rrcurveto
          endchar
        </CharString>
        <CharString name="four.dnom">
          -176 268 204 -66 66 hstemhm
          hintmask 01000000
          43 406 rmoveto
          141 hlineto
          12 callsubr
          hintmask 10000000
          -66 callsubr
          hintmask 01000000
          -21 callsubr
        </CharString>
        <CharString name="fraction">
          18 callgsubr
          560 22 callgsubr
          -558 -861 rlineto
          9 callgsubr
          endchar
        </CharString>
        <CharString name="g">
          -7 -298 90 202 92 317 78 1 -20 1 callgsubr
          -51 77 hintmask 11011000
          598 295 rmoveto
          -25 -31 -39 -36 -48 -37 36 282 rcurveline
          5 -11 -24 4 -14 hhcurveto
          -22 -27 -6 -13 -21 hvcurveto
          hintmask 11101000
          -23 9 -31 8 -41 1 rrcurveto
          -60 callgsubr
          -121 84 -73 89 -6 vhcurveto
          hintmask 11100100
          -50 -43 -30 -43 -3 -62 rrcurveto
          -110 -7 89 -34 54 hhcurveto
          105 72 69 126 15 hvcurveto
          27 209 60 43 52 43 40 42 rlinecurve
          -278 -60 rmoveto
          -66 -24 -36 -22 -35 hhcurveto
          hintmask 11101000
          -81 callsubr
          20 19 -5 -7 18 hvcurveto
          -61 -528 rmoveto
          -57 -7 -29 -14 -29 hhcurveto
          hintmask 11100100
          -25 -25 20 36 -1 hvcurveto
          -2 76 76 54 59 35 rrcurveto
          endchar
        </CharString>
        <CharString name="germandbls">
          37 -343 91 246 93 586 88 hstemhm
          20 133 44 86 -45 63 -23 78 51 144 hintmask 11110101
          190 107 rmoveto
          12 106 16 88 20 178 16 141 6 56 65 -3 20 -1 30 -16 -2 -43 rrcurveto
          hintmask 11110011
          -5 -101 -90 -52 -88 vvcurveto
          -28 11 -29 35 -33 vhcurveto
          56 -53 27 -29 -49 vvcurveto
          -43 -3 -30 -21 -31 hhcurveto
          hintmask 11111001
          -35 -25 24 45 17 11 25 12 4 hvcurveto
          2 -2 -5 0 -6 hhcurveto
          -27 -69 -21 -77 -63 69 -49 81 114 90 64 105 92 -55 37 -76 51 hvcurveto
          hintmask 11110011
          -53 36 -11 4 19 vvcurveto
          54 143 32 10 115 vhcurveto
          104 9 -116 54 -92 hhcurveto
          -135 -54 -89 -81 -9 hvcurveto
          -26 -222 -23 -207 -39 -322 rrcurveto
          -1 -9 -3 -30 -9 vvcurveto
          -95 64 -40 63 vhcurveto
          hintmask 11110101
          72 82 56 133 84 -55 71 -63 48 hvcurveto
          -8 -71 rmoveto
          36 -38 27 -53 -55 vvcurveto
          -59 -28 -25 -17 -13 -27 2 45 6 0 6 1 7 vhcurveto
          endchar
        </CharString>
        <CharString name="grave">
          -301 534 -21 224 -20 hstem
          101 -64 callsubr
          endchar
        </CharString>
        <CharString name="greater">
          148 112 -21 531 -20 hstem
          41 190 4 callsubr
          endchar
        </CharString>
        <CharString name="greaterequal">
          148 0 86 566 -20 hstem
          41 220 4 callsubr
          -428 -277 27 callsubr
        </CharString>
        <CharString name="guillemotleft">
          20 30 callsubr
          293 -1 rmoveto
          67 hlineto
          -125 239 144 9 callsubr
          -211 -245 rlineto
          312 -239 rmoveto
          67 hlineto
          -78 239 97 9 callsubr
          -139 38 callsubr
        </CharString>
        <CharString name="guillemotright">
          -59 21 30 callsubr
          77 hmoveto
          66 hlineto
          137 239 -121 9 callsubr
          79 -245 rlineto
          26 -239 rmoveto
          66 hlineto
          210 239 -194 9 callsubr
          127 38 callsubr
        </CharString>
        <CharString name="guilsinglleft">
          -229 21 30 callsubr
          193 hmoveto
          67 hlineto
          -107 239 140 9 callsubr
          -207 38 callsubr
        </CharString>
        <CharString name="guilsinglright">
          -229 21 30 callsubr
          20 hmoveto
          67 hlineto
          197 239 -183 9 callsubr
          116 38 callsubr
        </CharString>
        <CharString name="h">
          -42 -4 90 -65 -21 398 83 280 -20 hstemhm
          hintmask 01110000
          237 -19 callgsubr
          18 129 13 110 rrcurveto
          49 12 28 40 45 -15 callgsubr
          -70 -7 -85 rrcurveto
          hintmask 10110000
          -1 callgsubr
          21 -20 callsubr
          -6 callgsubr
          49 -88 -1 -46 -1 -39 -19 -31 -28 7 44 14 94 15 138 rrcurveto
          endchar
        </CharString>
        <CharString name="hungarumlaut">
          602 160 hstem
          208 762 rmoveto
          -117 -160 rlineto
          78 hlineto
          140 160 rlineto
          71 hmoveto
          -147 -160 rlineto
          88 hlineto
          160 160 rlineto
          endchar
        </CharString>
        <CharString name="hyphen">
          -81 331 86 hstem
          42 417 rmoveto
          -9 -86 rlineto
          382 hlineto
          9 86 rlineto
          endchar
        </CharString>
        <CharString name="i">
          -308 -7 93 515 159 hstem
          86 159 vstem
          165 -3 callgsubr
          -133 -626 -100 callgsubr
        </CharString>
        <CharString name="iacute">
          34 callsubr
          44 callsubr
          78 -72 callsubr
          -174 -603 -100 callgsubr
        </CharString>
        <CharString name="icircumflex">
          34 callsubr
          614 -20 hstem
          147 -75 callgsubr
          -290 -445 -100 callgsubr
        </CharString>
        <CharString name="idieresis">
          34 callsubr
          488 132 hstem
          19 131 54 131 vstem
          86 706 rmoveto
          -38 -29 -30 -36 -36 29 -30 38 35 29 30 36 36 -29 30 -35 hvcurveto
          183 hmoveto
          -36 -29 -30 -36 -36 29 -30 36 37 29 30 36 36 -29 30 -37 hvcurveto
          -238 -572 -100 callgsubr
        </CharString>
        <CharString name="igrave">
          34 callsubr
          44 callsubr
          117 -64 callsubr
          -213 -416 -100 callgsubr
        </CharString>
        <CharString name="infinity">
          114 110 -110 146 153 146 -110 110 hstemhm
          -90 94 574 94 hintmask 10101100
          403 139 rmoveto
          -15 26 28 -10 31 hhcurveto
          130 -2 54 119 116 vvcurveto
          109 -63 103 -119 -84 -53 -47 -85 -49 vhcurveto
          -37 40 -45 43 -30 17 rrcurveto
          19 -29 -30 13 -29 hhcurveto
          -140 -54 -117 -116 -109 63 -103 119 84 53 47 86 49 hvcurveto
          44 -47 49 -46 32 -16 rrcurveto
          hintmask 01011100
          92 122 rmoveto
          -46 2 -29 30 -55 65 44 76 47 14 36 2 rrcurveto
          57 2 29 -52 -45 vvcurveto
          -51 -29 -42 -54 -1 vhcurveto
          hintmask 10101100
          -405 -36 rmoveto
          -57 -2 -29 52 45 vvcurveto
          51 29 42 54 1 vhcurveto
          46 -2 28 -30 56 -65 -44 -76 -47 -14 -36 -2 rrcurveto
          endchar
        </CharString>
        <CharString name="integral">
          -97 -21 848 -20 hstemhm
          224 125 -104 128 hintmask 11010000
          355 727 rmoveto
          -55 -10 -51 -40 -4 -89 rrcurveto
          hintmask 11100000
          -11 -242 -7 -162 -3 -94 -5 -88 -12 -29 -23 -7 -15 17 -7 27 13 31 -17 18 -84 -9 -1 -71 -1 -48 42 -39 70 -7 rrcurveto
          -2 8 9 -1 7 hhcurveto
          82 55 50 91 4 hvcurveto
          hintmask 11010000
          24 540 3 47 0 30 28 5 rlinecurve
          15 -15 8 -25 -8 -30 19 -16 82 18 -7 71 -4 44 -39 31 -58 5 rrcurveto
          1 -8 -9 1 -8 hhcurveto
          -10 -10 -1 -2 -10 hvcurveto
          endchar
        </CharString>
        <CharString name="j">
          -234 -306 85 822 159 hstem
          -65 64 172 159 vstem
          250 -3 callgsubr
          44 -287 rmoveto
          6 -11 -21 1 -17 hhcurveto
          -35 -36 -9 -28 -23 hvcurveto
          -15 -128 -15 -126 -12 -107 rrcurveto
          -86 -56 -88 -85 -116 vvcurveto
          -107 71 -24 49 100 48 60 114 13 vhcurveto
          -181 -89 rmoveto
          -17 -19 18 38 66 47 61 54 43 hvcurveto
          -21 -160 rlineto
          -48 -7 -12 -18 -25 hhcurveto
          endchar
        </CharString>
        <CharString name="k">
          -43 -6 88 -61 -21 397 86 278 -20 hstemhm
          347 139 hintmask 01111000
          242 -19 callgsubr
          16 127 13 110 rrcurveto
          46 10 33 44 50 hhcurveto
          41 24 -22 -44 -1 hvcurveto
          -1 -46 -43 -49 -79 -19 4 -36 8 -33 11 -31 rrcurveto
          hintmask 10111000
          -72 26 48 -51 80 hhcurveto
          49 106 19 153 40 hvcurveto
          -4 8 -14 29 -22 20 -29 -105 -45 -39 -51 3 -36 2 -15 37 -9 37 -4 16 -3 14 -2 13 9 4 rcurveline
          68 32 46 48 1 72 1 84 -65 45 -86 -3 -42 -1 -48 -12 -41 -38 8 44 14 94 15 139 rrcurveto
          endchar
        </CharString>
        <CharString name="l">
          -233 -6 90 677 -20 hstem
          298 65 vstem
          374 285 rmoveto
          -37 callgsubr
          -32 -273 -14 -110 -7 -71 -10 -102 62 -53 95 6 -18 callsubr
          -165 190 -37 callsubr
          endchar
        </CharString>
        <CharString name="less">
          148 82 -21 531 -20 hstem
          619 157 rmoveto
          -382 193 417 143 13 99 -639 -226 579 -305 rlineto
          endchar
        </CharString>
        <CharString name="lessequal">
          159 0 86 566 -20 hstem
          630 217 rmoveto
          -382 193 417 143 13 99 -639 -226 579 -305 rlineto
          -577 -35 27 callsubr
        </CharString>
        <CharString name="logicalnot">
          185 -21 181 86 hstem
          471 164 rmoveto
          83 hlineto
          32 267 rlineto
          -540 hlineto
          -12 -86 rlineto
          459 hlineto
          endchar
        </CharString>
        <CharString name="lozenge">
          98 51 -21 512 -20 hstem
          52 281 rmoveto
          224 -251 278 251 -224 261 rlineto
          128 -261 rmoveto
          -170 -155 -140 155 170 155 rlineto
          endchar
        </CharString>
        <CharString name="lslash">
          -206 -6 90 270 77 330 -20 hstem
          293 354 rmoveto
          74 77 -89 hlineto
          43 52 35 63 6 72 -16 callgsubr
          -7 -63 -7 -55 -6 -48 rrcurveto
          -72 42 callsubr
          71 hlineto
          -12 -106 -8 -60 -4 -45 -10 -102 62 -53 95 6 -18 callsubr
          -34 callsubr
          10 9 rcurveline
          4 121 -37 callsubr
          endchar
        </CharString>
        <CharString name="m">
          265 0 85 -69 -21 402 85 hstemhm
          hintmask 10100000
          35 hmoveto
          134 hlineto
          3 33 18 134 18 129 rrcurveto
          34 6 24 67 58 hhcurveto
          37 26 -25 -63 -8 hvcurveto
          -3 -25 -14 -105 -19 -179 rrcurveto
          129 hlineto
          4 28 22 178 13 109 rrcurveto
          46 12 32 36 42 -15 callgsubr
          -70 -7 -85 rrcurveto
          hintmask 01100000
          -1 callgsubr
          21 -20 callsubr
          hintmask 10100000
          -6 callgsubr
          51 -88 -1 -63 -1 -45 -29 -28 -40 rrcurveto
          47 -22 -56 22 -62 hhcurveto
          -47 -39 -17 -25 -29 hvcurveto
          40 -6 -38 2 -25 13 callsubr
        </CharString>
        <CharString name="macron">
          618 82 hstem
          120 700 rmoveto
          -82 420 82 vlineto
          endchar
        </CharString>
        <CharString name="minus">
          -8 331 86 hstem
          25 417 31 callsubr
          endchar
        </CharString>
        <CharString name="mu">
          127 -253 -21 269 96 390 -20 21 -20 hstemhm
          hintmask 11010000
          373 175 -68 callsubr
          15 118 10 69 5 37 5 34 rcurveline
          6 vlineto
          14 -6 10 -10 7 vhcurveto
          -10 9 -13 3 -14 1 rrcurveto
          2 -8 -9 0 -8 hhcurveto
          -24 -25 -5 -3 -8 hvcurveto
          -8 -73 -30 -250 rlineto
          -1 -9 0 -8 -8 vvcurveto
          -47 -400 rlineto
          131 hlineto
          32 271 rlineto
          -1 10 11 -1 12 -98 callsubr
          hintmask 11100000
          -50 callgsubr
        </CharString>
        <CharString name="multiply">
          -156 85 -21 509 -20 hstem
          390 69 rmoveto
          65 63 -181 195 185 183 -53 63 -188 -185 -169 182 -62 -62 168 -183 -202 -199 55 -62 203 200 rlineto
          endchar
        </CharString>
        <CharString name="n">
          40 callsubr
          1 -20 hstemhm
          hintmask 01100000
          25 hmoveto
          -24 callgsubr
          hintmask 10100000
          -47 callgsubr
          hintmask 01010000
          16 callgsubr
        </CharString>
        <CharString name="nbspace">
          -319 endchar
        </CharString>
        <CharString name="nine">
          132 -1 98 177 91 306 94 hstem
          88 152 234 152 vstem
          453 387 rmoveto
          -8 -7 -52 -14 -22 hhcurveto
          -100 -37 84 67 5 hvcurveto
          95 6 44 60 72 hhcurveto
          94 18 -107 -89 -22 -2 -21 -1 -18 hvcurveto
          -165 -13 -47 -152 -137 hhcurveto
          -76 -42 27 47 -38 hvcurveto
          -73 -93 rlineto
          -37 43 56 -42 121 hhcurveto
          220 3 115 149 23 239 rrcurveto
          2 18 1 19 20 vvcurveto
          149 -66 169 -207 -145 -100 -86 -147 -18 vhcurveto
          -1 -10 -1 -9 -10 vvcurveto
          -107 60 -111 138 -11 vhcurveto
          61 -5 58 15 40 30 rrcurveto
          endchar
        </CharString>
        <CharString name="notequal">
          -15 -79 -21 315 86 94 86 280 -20 hstem
          484 301 rmoveto
          -200 hlineto
          28 94 rlineto
          182 0 callsubr
          -167 hlineto
          84 280 rlineto
          -83 hlineto
          -84 -280 rlineto
          -221 hlineto
          -12 -86 rlineto
          207 hlineto
          -28 -94 rlineto
          -188 hlineto
          -13 -86 rlineto
          175 hlineto
          -94 -315 14 callgsubr
          94 315 rlineto
          215 hlineto
          endchar
        </CharString>
        <CharString name="ntilde">
          40 callsubr
          43 36 callgsubr
          hintmask 10101000
          157 6 callgsubr
          hintmask 10110000
          -72 callgsubr
          hintmask 01101000
          -53 callsubr
          rrcurveto
          -88 -566 rmoveto
          -24 callgsubr
          hintmask 10110000
          -47 callgsubr
          16 callgsubr
        </CharString>
        <CharString name="numbersign">
          104 13 -21 215 76 144 76 198 -20 hstem
          533 283 rmoveto
          -117 hlineto
          59 144 rlineto
          137 hlineto
          11 76 rlineto
          -117 29 callsubr
          -116 29 callsubr
          -134 hlineto
          -9 -76 rlineto
          112 hlineto
          -59 -144 rlineto
          -124 hlineto
          -9 -76 rlineto
          102 29 callgsubr
          116 29 callgsubr
          137 hlineto
          -298 76 rmoveto
          59 144 rlineto
          116 hlineto
          -59 -144 rlineto
          endchar
        </CharString>
        <CharString name="o">
          -7 callsubr
          -21 callgsubr
          292 481 -99 callsubr
        </CharString>
        <CharString name="oacute">
          -7 callsubr
          256 -20 -21 callgsubr
          214 -72 callsubr
          -49 -256 -99 callsubr
        </CharString>
        <CharString name="ocircumflex">
          -7 callsubr
          219 -20 -21 callgsubr
          283 -75 callgsubr
          -165 -98 -99 callsubr
        </CharString>
        <CharString name="odieresis">
          -7 callsubr
          45 callgsubr
          20 141 -72 -14 callsubr
          -104 141 hintmask 11110100
          161 677 rmoveto
          hintmask 11101100
          -42 -30 -33 -40 hvcurveto
          hintmask 11110100
          -40 30 -32 42 vhcurveto
          hintmask 11101100
          39 32 32 40 hvcurveto
          hintmask 11110100
          40 -32 33 -39 vhcurveto
          -94 callgsubr
          -109 -196 rmoveto
          -65 callgsubr
          vhcurveto
          hintmask 11110010
          -55 callgsubr
          hvcurveto
          -81 callgsubr
        </CharString>
        <CharString name="oe">
          271 -6 90 321 76 hstem
          0 callgsubr
          140 177 121 vstem
          577 12 callgsubr
          -65 -63 -25 -43 -48 hvcurveto
          -39 42 -57 27 -69 -1 rrcurveto
          -65 callgsubr
          69 63 24 45 47 vhcurveto
          -42 37 55 -27 73 -103 callsubr
          -311 -148 rmoveto
          -62 -29 61 73 hvcurveto
          4 104 43 87 74 -1 rrcurveto
          -44 callgsubr
          vhcurveto
          endchar
        </CharString>
        <CharString name="ogonek">
          9 -20 hstem
          188 87 vstem
          288 9 rmoveto
          -57 -19 -41 -51 -2 -64 -3 -77 57 -54 80 8 40 4 24 12 18 15 -14 43 rcurveline
          -9 -5 -27 -10 -21 2 -29 3 -28 19 -1 50 rrcurveto
          70 -1 73 54 36 hhcurveto
          endchar
        </CharString>
        <CharString name="ograve">
          -7 callsubr
          256 -20 -21 callgsubr
          253 -64 callsubr
          -88 -69 -99 callsubr
        </CharString>
        <CharString name="one">
          -30 0 108 653 -20 hstem
          475 hmoveto
          12 108 rlineto
          -156 hlineto
          85 653 rlineto
          -122 hlineto
          -25 -51 -92 -41 -102 -26 -11 -90 rcurveline
          184 11 -62 -456 rlineto
          -160 hlineto
          -14 -108 rlineto
          endchar
        </CharString>
        <CharString name="one.numr">
          -182 310 55 335 -20 hstem
          226 365 -60 callsubr
          endchar
        </CharString>
        <CharString name="onehalf">
          261 -79 -21 80 79 187 134 -70 55 -32 47 320 -20 81 -20 hstemhm
          hintmask 11010110
          726 25 callsubr
          58 465 -60 callsubr
          hintmask 11100110
          261 -119 rmoveto
          -1 5 -1 29 5 vvcurveto
          hintmask 11001110
          -69 callsubr
          hintmask 11100110
          43 callgsubr
        </CharString>
        <CharString name="onequarter">
          319 -79 -21 92 204 -66 66 114 55 335 -20 81 -20 hstemhm
          hintmask 10111100
          713 25 callsubr
          54 465 -60 callsubr
          205 -235 rmoveto
          141 hlineto
          12 callsubr
          hintmask 11011100
          -66 callsubr
          hintmask 10111100
          -21 callsubr
        </CharString>
        <CharString name="onesuperior">
          -272 310 55 335 -20 hstem
          164 365 rmoveto
          38 335 rlineto
          -64 hlineto
          -13 -26 -38 -22 -51 -13 -7 -47 rcurveline
          84 8 -26 -235 rlineto
          -78 hlineto
          -7 -55 rlineto
          237 hlineto
          1 13 4 28 1 14 rrcurveto
          endchar
        </CharString>
        <CharString name="ordfeminine">
          -123 472 43 148 37 hstemhm
          70 68 -68 211 hintmask 11010000
          342 581 rmoveto
          -50 -13 -20 -16 -15 hhcurveto
          -7 -6 5 13 22 5 26 15 114 hvcurveto
          4 -8 -6 1 -13 hhcurveto
          -12 -11 -3 -5 -8 hvcurveto
          4 -10 -14 4 -18 hhcurveto
          -76 1 -55 -53 -83 vvcurveto
          -57 43 -36 44 25 23 9 21 17 vhcurveto
          -19 9 21 -11 28 hhcurveto
          22 39 14 66 20 hvcurveto
          -2 8 -4 10 -13 11 rrcurveto
          -121 -20 rmoveto
          -34 -11 -18 -12 -17 hhcurveto
          hintmask 11100000
          -20 -22 17 41 5 hvcurveto
          60 2 25 30 39 hhcurveto
          10 9 -3 -3 8 hvcurveto
          endchar
        </CharString>
        <CharString name="ordmasculine">
          -257 450 41 168 41 hstem
          20 72 108 72 vstem
          160 700 rmoveto
          -79 -1 -61 -53 -87 vvcurveto
          -61 47 -48 69 75 61 55 91 57 -48 47 -64 vhcurveto
          -5 -41 rmoveto
          31 -1 14 -36 -35 vvcurveto
          -53 -25 -43 -35 -32 -16 32 38 vhcurveto
          3 53 22 46 38 -1 rrcurveto
          endchar
        </CharString>
        <CharString name="oslash">
          -19 -139 -21 154 82 625 -20 -21 callgsubr
          444 701 rmoveto
          -83 hlineto
          -66 -220 rlineto
          -3 hlineto
          -46 callgsubr
          -89 50 -75 84 -32 vhcurveto
          -51 -170 14 callgsubr
          46 154 rlineto
          14 hlineto
          -33 callgsubr
          85 -53 75 -83 30 hvcurveto
          -189 -355 rmoveto
          -16 25 -8 34 38 vvcurveto
          4 99 39 83 67 7 rrcurveto
          72 -35 rmoveto
          18 -26 8 -39 -38 vvcurveto
          -101 -45 -80 -67 -4 vhcurveto
          endchar
        </CharString>
        <CharString name="otilde">
          -7 callsubr
          43 36 callgsubr
          0 callgsubr
          141 hintmask 11011100
          138 6 callgsubr
          hintmask 11101100
          -72 callgsubr
          hintmask 11011100
          -53 callsubr
          rrcurveto
          198 -85 -99 callsubr
        </CharString>
        <CharString name="p">
          -10 -253 -21 268 90 306 92 hstem
          181 191 vstem
          131 -274 rmoveto
          32 275 rlineto
          -4 19 20 -3 22 hhcurveto
          -22 callgsubr
          -44 -38 -12 -21 -30 hvcurveto
          25 -8 -35 8 -33 hhcurveto
          -24 -25 -5 -3 -8 hvcurveto
          -25 -228 -34 -289 -27 -231 rrcurveto
          372 531 rmoveto
          -107 -8 -47 -66 -68 hhcurveto
          -35 -34 17 43 1 hvcurveto
          6 51 8 55 9 66 rrcurveto
          37 15 24 37 48 hhcurveto
          57 30 -57 -76 -6 hvcurveto
          endchar
        </CharString>
        <CharString name="paragraph">
          -1 74 -52 -21 173 48 76 73 391 -20 21 -20 hstemhm
          21 169 -89 67 hintmask 01111010
          455 hmoveto
          66 596 19 -8 17 68 -9 5 -9 5 -10 4 rlinecurve
          10 91 rlineto
          -54 hlineto
          -8 -74 -23 6 7 67 rlineto
          hintmask 10110110
          1 -7 -10 1 -11 hhcurveto
          -31 -42 -6 -16 -25 hvcurveto
          -4 -35 rlineto
          -242 -7 -68 -120 -100 vvcurveto
          -125 118 -56 102 7 7 0 1 7 vhcurveto
          6 1 14 1 12 1 -12 -128 rcurveline
          -90 -9 -36 -10 -23 hhcurveto
          hintmask 10111001
          -23 -23 19 28 32 22 21 32 11 15 0 -2 9 hvcurveto
          4 45 rlineto
          4 -12 -27 1 -10 hhcurveto
          -65 -46 -49 -54 -77 53 -42 74 100 57 66 131 14 hvcurveto
          46 421 24 -5 rlineto
          hintmask 01111010
          -68 -612 rlineto
          -101 370 rmoveto
          -64 3 -46 57 59 vvcurveto
          51 29 71 104 11 vhcurveto
          endchar
        </CharString>
        <CharString name="parenleft">
          42 callgsubr
          426 762 rmoveto
          -191 -17 -182 -157 -28 -255 -27 -243 110 -186 210 -62 12 85 rcurveline
          -121 40 -74 152 26 208 26 211 88 116 142 24 rrcurveto
          endchar
        </CharString>
        <CharString name="parenright">
          42 callgsubr
          116 677 rmoveto
          121 -40 74 -152 -26 -208 -26 -211 -88 -116 -142 -24 -9 -84 rcurveline
          191 17 182 157 28 255 27 243 -110 186 -210 62 rrcurveto
          endchar
        </CharString>
        <CharString name="percent">
          319 21 callgsubr
          20 35 callgsubr
          96 35 callgsubr
          vstem
          223 -88 callsubr
          -5 -57 rmoveto
          -63 callsubr
          endchar
        </CharString>
        <CharString name="period">
          -176 -19 163 hstem
          100 163 vstem
          181 144 rmoveto
          -29 callgsubr
        </CharString>
        <CharString name="periodcentered">
          236 142 hstem
          221 150 vstem
          232 378 rmoveto
          -11 0 -1 -11 hvcurveto
          -118 vlineto
          -11 2 -1 9 vhcurveto
          126 hlineto
          12 1 0 8 hvcurveto
          127 vlineto
          7 -1 0 -12 vhcurveto
          endchar
        </CharString>
        <CharString name="perthousand">
          733 21 callgsubr
          35 35 callgsubr
          96 35 callgsubr
          35 35 callgsubr
          vstem
          238 -88 callsubr
          392 hmoveto
          -65 callsubr
          -397 -57 rmoveto
          -63 callsubr
          392 hmoveto
          -63 callsubr
          endchar
        </CharString>
        <CharString name="pi">
          377 -6 92 -65 -21 518 62 62 119 hstemhm
          50 87 -22 70 hintmask 10111000
          203 22 callgsubr
          8 callgsubr
          38 1 36 13 32 22 -30 -258 rcurveline
          hintmask 10110100
          -90 -51 -61 -63 -79 25 callgsubr
          62 471 rlineto
          98 hlineto
          hintmask 01111000
          -75 -642 rlineto
          136 hlineto
          84 642 rlineto
          98 hlineto
          50 40 56 63 -20 hvcurveto
          -558 -119 -23 callgsubr
          52 -449 rmoveto
          hintmask 10110100
          -53 -6 2 -54 -36 hhcurveto
          -27 -2 21 11 24 23 32 48 33 hvcurveto
          endchar
        </CharString>
        <CharString name="plus">
          -97 140 -21 213 86 210 -20 hstem
          243 119 rmoveto
          24 213 rlineto
          -27 callsubr
          endchar
        </CharString>
        <CharString name="plusminus">
          -45 0 86 306 86 210 -20 hstem
          287 392 rmoveto
          -27 callsubr
          92 hlineto
          195 -179 rmoveto
          10 86 rlineto
          -472 35 callsubr
          endchar
        </CharString>
        <CharString name="product">
          -78 -21 774 86 hstem
          453 -99 rmoveto
          87 774 rlineto
          85 0 callsubr
          -620 hlineto
          -12 -86 rlineto
          122 hlineto
          -87 -774 14 callgsubr
          87 774 rlineto
          248 hlineto
          -87 -774 rlineto
          endchar
        </CharString>
        <CharString name="q">
          34 -304 92 206 92 317 78 hstem
          20 141 349 57 vstem
          294 -130 rmoveto
          -107 -13 51 -67 99 hhcurveto
          45 94 28 122 -3 hvcurveto
          52 -27 52 -41 48 vhcurveto
          63 12 75 48 36 119 -5 15 -17 23 -16 20 -30 -105 -59 -40 -49 -4 rrcurveto
          -1 -13 -22 0 -4 hhcurveto
          5 41 5 45 8 62 36 callsubr
          rlinecurve
          -38 callsubr
          -20 -23 -8 -9 -17 hvcurveto
          9 -23 -30 8 -39 -74 callsubr
          40 36 10 23 32 vhcurveto
          21 148 rmoveto
          -2 -18 rlineto
          -53 -24 -32 -18 -32 hhcurveto
          -81 callsubr
          18 18 -4 -6 16 hvcurveto
          108 -605 rmoveto
          -15 -28 9 47 4 hvcurveto
          3 35 6 49 6 49 38 -38 28 -44 1 -50 rrcurveto
          -43 1 -26 -14 -18 hhcurveto
          endchar
        </CharString>
        <CharString name="question">
          -16 -32 164 595 84 hstemhm
          80 96 -96 166 121 147 hintmask 11101000
          195 540 rmoveto
          -13 18 -8 34 2 35 rrcurveto
          39 1 33 61 71 hhcurveto
          59 29 -41 -47 -2 hvcurveto
          -6 -164 -236 -20 -15 -156 -1 -13 5 -46 13 -14 rrcurveto
          97 hlineto
          -1 3 -1 17 1 4 10 65 83 37 75 58 63 48 56 63 4 107 rrcurveto
          109 3 -86 74 -127 hhcurveto
          -122 -98 -79 -108 -4 hvcurveto
          -26 6 -29 12 -29 vhcurveto
          66 -408 rmoveto
          -45 -37 -38 -45 -45 37 -36 45 hvcurveto
          hintmask 11011000
          45 37 36 45 45 -37 38 -45 hvcurveto
          endchar
        </CharString>
        <CharString name="questiondown">
          54 -275 84 208 -21 408 164 hstemhm
          80 147 121 166 -96 96 hintmask 11111000
          430 568 rmoveto
          -45 -37 -36 -45 -45 37 -38 45 45 37 38 45 45 -37 36 -45 hvcurveto
          -60 -257 rmoveto
          1 -3 0 -9 -7 vvcurveto
          -6 vlineto
          -10 -65 -83 -37 -75 -58 -63 -48 -56 -57 -4 -107 rrcurveto
          -109 -3 86 -80 127 hhcurveto
          122 98 79 108 4 hvcurveto
          26 -6 29 -12 29 vhcurveto
          -97 hlineto
          hintmask 11110100
          13 -18 8 -34 -2 -35 rrcurveto
          -39 -1 -33 -61 -71 hhcurveto
          -59 -29 47 47 2 hvcurveto
          6 164 236 14 15 156 1 13 -5 46 -13 15 rrcurveto
          endchar
        </CharString>
        <CharString name="quotedbl">
          -70 callsubr
        </CharString>
        <CharString name="quotedblbase">
          -107 161 -2 callsubr
          161 -87 callgsubr
        </CharString>
        <CharString name="quotedblleft">
          -107 549 -21 hstem
          30 170 18 169 vstem
          161 808 rmoveto
          -34 -28 -96 -94 -1 -76 rrcurveto
          -52 41 -30 48 vhcurveto
          44 -1 37 38 44 vvcurveto
          41 -30 31 -36 9 vhcurveto
          24 33 25 33 33 37 -4 32 callsubr
          188 hmoveto
          -33 -28 -97 -94 -1 -76 rrcurveto
          -52 41 -30 47 vhcurveto
          45 -1 37 38 -1 45 rrcurveto
          41 -29 30 -36 9 vhcurveto
          22 33 27 34 31 36 -2 32 callsubr
          endchar
        </CharString>
        <CharString name="quotedblright">
          -70 callsubr
        </CharString>
        <CharString name="quoteleft">
          -295 531 -21 hstem
          30 168 vstem
          160 790 rmoveto
          -34 -28 -96 -94 -76 vvcurveto
          -52 41 -30 46 45 36 37 44 41 -29 32 -37 7 vhcurveto
          24 34 26 33 32 37 -3 32 callsubr
          endchar
        </CharString>
        <CharString name="quoteright">
          -290 791 44 callgsubr
          vstem
          127 791 20 callsubr
          -44 -41 29 -32 37 -7 hvcurveto
          -24 -34 -26 -33 -32 -37 3 -3 42 -18 9 6 rrcurveto
          34 28 96 94 76 vvcurveto
          52 -41 30 -46 vhcurveto
          endchar
        </CharString>
        <CharString name="quotesinglbase">
          -360 154 -20 hstem
          18 168 vstem
          99 -35 callgsubr
        </CharString>
        <CharString name="quotesingle">
          532 -21 290 -20 hstem
          240 801 rmoveto
          -8 -2 -1 -9 1 hvcurveto
          3 -45 9 -153 5 -74 rrcurveto
          1 -8 3 0 0 vvcurveto
          66 hlineto
          7 2 0 8 1 hvcurveto
          29 266 rlineto
          16 2 1 0 -10 hhcurveto
          endchar
        </CharString>
        <CharString name="r">
          -127 15 -21 335 152 -87 87 hstemhm
          55 133 78 65 hintmask 10111000
          56 165 rmoveto
          -1 -9 0 -10 -9 vvcurveto
          -74 31 -69 97 75 73 47 110 89 -62 66 -46 36 vhcurveto
          14 31 22 23 32 -2 rrcurveto
          hintmask 11011000
          34 -2 7 -25 -6 -38 rrcurveto
          59 -2 37 33 50 vvcurveto
          38 -32 33 -63 -41 -37 -19 -28 -24 vhcurveto
          2 vlineto
          37 -35 8 -26 -40 -20 -7 -4 -13 vhcurveto
          175 -314 rmoveto
          -70 -36 -1 -8 -12 -22 4 38 4 0 4 1 4 vhcurveto
          4 38 7 48 6 47 rrcurveto
          35 -34 25 -41 -41 vvcurveto
          endchar
        </CharString>
        <CharString name="radical">
          -55 -21 840 -20 hstem
          -71 158 rmoveto
          100 104 140 -338 505 840 rlineto
          -59 hlineto
          -415 -706 -139 298 -151 -161 rlineto
          endchar
        </CharString>
        <CharString name="registered">
          171 21 68 68 57 163 184 -56 56 42 68 hstemhm
          30 68 75 52 202 92 93 68 hintmask 1110111110000000
          -35 callsubr
          -582 vmoveto
          11 callsubr
          11 callgsubr
          hvcurveto
          190 194 rmoveto
          -45 -15 -19 -24 -19 hhcurveto
          -36 13 82 46 -23 hvcurveto
          45 18 30 40 -1 42 -2 80 -85 43 -100 -4 -79 -3 -83 -47 3 -72 1 -24 12 -39 70 1 4 28 rcurveline
          -13 1 -22 14 19 vvcurveto
          hintmask 1101111110000000
          39 43 27 66 58 38 -24 -42 -3 vhcurveto
          -4 -47 -41 -19 -35 -11 -2 -1 rcurveline
          13 102 rlineto
          2 -7 -18 2 -8 hhcurveto
          -18 -17 -4 -8 -12 hvcurveto
          -1 -15 -7 -57 -6 -51 -51 -24 -35 -29 -6 -41 rrcurveto
          -42 -7 28 -39 46 hhcurveto
          31 52 19 95 12 hvcurveto
          6 52 23 6 4 -12 3 -19 5 -35 rlinecurve
          8 -58 17 -52 65 4 37 2 47 27 20 87 rrcurveto
          -314 -16 rmoveto
          -29 -4 -13 -9 -11 hhcurveto
          -14 -3 11 5 14 19 19 29 18 hvcurveto
          endchar
        </CharString>
        <CharString name="ring">
          495 56 98 56 hstem
          188 56 98 56 vstem
          293 705 3 callsubr
          -56 vmoveto
          -26 callsubr
          endchar
        </CharString>
        <CharString name="s">
          -24 -6 91 452 1 callsubr
          305 381 -88 callgsubr
        </CharString>
        <CharString name="scaron">
          -24 -6 91 650 1 callsubr
          77 735 -61 callgsubr
          148 -354 -88 callgsubr
        </CharString>
        <CharString name="section">
          82 -335 96 753 248 -86 86 hstemhm
          33 87 -46 145 -37 145 -32 146 -20 149 -66 85 hintmask 1101001010000000
          45 -82 rmoveto
          -9 -29 -4 -28 1 -26 rrcurveto
          -96 4 67 -74 130 hhcurveto
          115 96 79 131 -4 hvcurveto
          -2 44 -14 39 -23 40 rrcurveto
          hintmask 1011010100000000
          85 15 87 65 -4 116 -4 99 -83 86 -74 84 -52 58 -29 34 -1 35 rrcurveto
          58 -2 41 28 46 hhcurveto
          hintmask 1101010010000000
          39 51 -22 -63 2 hvcurveto
          1 -37 -16 -21 -9 -19 rrcurveto
          87 hlineto
          8 17 16 35 -2 41 rrcurveto
          100 -3 -83 55 -105 hhcurveto
          -122 -98 -70 -114 4 hvcurveto
          2 -59 23 -35 26 -42 rrcurveto
          hintmask 1100101010000000
          -94 -22 -67 -76 2 -99 3 -85 48 -72 54 -67 34 -43 36 -42 26 -40 rrcurveto
          13 -20 7 -22 -18 vvcurveto
          -51 2 -43 -24 -38 hhcurveto
          hintmask 1101010100000000
          -66 -28 52 52 -2 hvcurveto
          18 3 19 8 16 vhcurveto
          155 451 rmoveto
          58 -71 75 -71 2 -57 1 -51 -40 -24 -39 -1 -15 19 -18 18 -16 19 rrcurveto
          hintmask 1100101010000000
          -51 57 -23 33 -1 45 -2 51 32 27 37 6 rrcurveto
          endchar
        </CharString>
        <CharString name="semicolon">
          -178 154 167 0 163 hstemhm
          81 168 -116 163 hintmask 01010000
          214 484 -54 callgsubr
          hintmask 10100000
          -52 -330 20 callsubr
          -44 -41 29 -32 37 -7 hvcurveto
          -24 -34 -26 -33 -32 -37 3 -3 42 -18 9 6 rrcurveto
          34 28 96 94 76 vvcurveto
          52 -41 30 -46 vhcurveto
          endchar
        </CharString>
        <CharString name="seven">
          57 345 86 103 227 -113 113 hstemhm
          25 89 -89 235 hintmask 11001000
          524 345 rmoveto
          11 86 rlineto
          -91 hlineto
          121 247 15 20 7 30 -11 33 rlinecurve
          -398 hlineto
          -112 -41 -64 -58 -62 45 -43 74 hvcurveto
          hintmask 10101000
          64 2 48 56 4 56 rrcurveto
          132 hlineto
          -103 -217 rlineto
          hintmask 10110000
          -175 35 callsubr
          144 hlineto
          -62 -129 -23 -48 -27 -38 12 -58 rlinecurve
          20 -98 111 -11 69 67 -63 42 17 70 33 68 66 135 rcurveline
          -214 303 rmoveto
          -18 -42 -55 2 20 vvcurveto
          25 28 -5 35 vhcurveto
          endchar
        </CharString>
        <CharString name="six">
          84 0 94 313 88 172 94 hstem
          32 153 242 156 vstem
          208 385 rmoveto
          8 7 56 14 22 hhcurveto
          100 38 -61 -97 -4 hvcurveto
          -3 -97 -55 -60 -55 2 -112 3 -23 165 6 89 10 164 53 149 144 3 57 1 43 -18 35 -28 46 82 rcurveline
          -40 33 -65 23 -67 1 -215 3 -135 -146 -19 -243 -15 -158 67 -214 231 -3 137 -2 126 96 5 159 rrcurveto
          118 4 -75 124 -150 hhcurveto
          -50 -52 -9 -25 -45 hvcurveto
          endchar
        </CharString>
        <CharString name="slash">
          -158 18 callgsubr
          278 22 callgsubr
          -258 -1 callsubr
          258 39 callgsubr
        </CharString>
        <CharString name="softhyphen">
          -81 331 86 hstem
          424 417 rmoveto
          -382 hlineto
          -9 -86 rlineto
          382 hlineto
          endchar
        </CharString>
        <CharString name="space">
          -319 endchar
        </CharString>
        <CharString name="sterling">
          70 -6 91 65 81 132 80 125 193 -87 87 hstemhm
          17 79 405 76 hintmask 11101110
          312 172 rmoveto
          23 191 rlineto
          179 -10 callgsubr
          hintmask 11110110
          -9 -1 -10 -1 -10 vhcurveto
          75 hlineto
          2 14 13 callgsubr
          -19 -151 rlineto
          -116 hlineto
          -12 -80 rlineto
          118 hlineto
          -6 -52 -6 -46 -5 -37 rrcurveto
          2 -11 -11 1 -12 hhcurveto
          -75 -57 -51 -78 -72 63 -36 52 53 56 18 53 35 hvcurveto
          -37 45 49 -34 60 hhcurveto
          81 56 59 117 22 hvcurveto
          -8 13 -24 29 -18 17 rrcurveto
          -95 -30 -14 -49 -66 hhcurveto
          -36 -37 39 37 -45 hvcurveto
          -186 -78 6 callsubr
          11 -3 -4 12 hvcurveto
          -30 -5 -9 -30 -31 hhcurveto
          endchar
        </CharString>
        <CharString name="summation">
          -126 86 674 86 hstem
          343 290 rmoveto
          -192 344 rlineto
          456 hlineto
          17 86 rlineto
          -561 hlineto
          -18 -85 193 -346 -270 -329 -19 -86 rlineto
          563 hlineto
          17 86 rlineto
          -455 hlineto
          269 328 rlineto
          1 hlineto
          -1 1 1 1 rlineto
          endchar
        </CharString>
        <CharString name="t">
          -195 -6 91 319 77 280 -20 hstem
          191 78 vstem
          305 404 rmoveto
          74 77 -147 hlineto
          11 85 11 77 4 38 41 callgsubr
          -41 9 -35 20 callgsubr
          vhcurveto
          -32 -272 rlineto
          -86 42 callsubr
          81 hlineto
          4 -2 -31 -266 rlineto
          -85 -10 45 -57 88 hhcurveto
          74 84 39 132 92 -55 70 -62 52 hvcurveto
          3 25 rlineto
          47 -238 rmoveto
          -59 -23 -22 -26 -13 -16 10 35 20 8 69 10 83 vhcurveto
          34 -38 26 -46 -52 vvcurveto
          endchar
        </CharString>
        <CharString name="thorn">
          -253 -21 268 -10 callsubr
          -4 -27 -14 -130 -14 -122 -15 -123 rcurveline
          -10 -85 -7 -51 -3 -28 -2 -32 rlinecurve
          -50 -429 rlineto
          131 hlineto
          32 277 18 -5 21 -3 23 -1 rlinecurve
          -9 callsubr
          -21 -160 rmoveto
          5 34 rlineto
          35 15 27 32 -20 callgsubr
        </CharString>
        <CharString name="three">
          119 0 98 438 225 -94 94 hstemhm
          108 134 207 141 -141 164 hintmask 11011000
          248 536 rmoveto
          -4 12 -2 13 12 vvcurveto
          hintmask 10110100
          -1 46 26 45 67 3 78 -1 41 -56 -4 -59 -6 -80 -58 -37 -60 -6 rrcurveto
          -3 -30 -56 -2 -37 hhcurveto
          -8 -91 rlineto
          61 hlineto
          91 2 110 -23 -2 -97 -2 -63 -47 -54 -80 1 -75 1 -88 61 -30 68 -97 -90 rcurveline
          81 -110 121 -25 76 -3 150 -5 147 70 3 156 2 92 -66 61 -84 17 rrcurveto
          hintmask 11011000
          74 31 49 58 2 86 rrcurveto
          131 2 -111 64 -137 hhcurveto
          -96 -143 -52 -146 3 hvcurveto
          -8 1 -9 1 -10 vhcurveto
          endchar
        </CharString>
        <CharString name="three.numr">
          -140 310 -3 callsubr
          hstemhm
          256 85 hintmask 10101000
          163 -78 callsubr
        </CharString>
        <CharString name="threequarters">
          311 -79 -21 86 204 -66 66 120 -3 callsubr
          61 -20 hstemhm
          246 85 hintmask 1101010110000000
          91 -100 rmoveto
          9 callgsubr
          -83 hlineto
          -496 -187 16 callsubr
          hintmask 1101001110000000
          -43 callgsubr
          hintmask 1101100110000000
          -80 callgsubr
          hintmask 1101010110000000
          -5 1 -14 1 -7 vhcurveto
          570 -384 rmoveto
          -62 callgsubr
          hintmask 1011100110000000
          -2 141 vlineto
          12 callsubr
          hintmask 1101100110000000
          -59 callgsubr
          76 -303 rmoveto
          -23 callsubr
          26 -2 17 -10 -6 -40 rrcurveto
          endchar
        </CharString>
        <CharString name="threesuperior">
          -140 310 -3 callsubr
          hstemhm
          252 85 hintmask 10101000
          159 -78 callsubr
        </CharString>
        <CharString name="tilde">
          -114 524 36 callgsubr
          hintmask 01000000
          84 6 callgsubr
          hintmask 10000000
          -72 callgsubr
          hintmask 01000000
          -53 callsubr
          rrcurveto
          endchar
        </CharString>
        <CharString name="trademark">
          675 -7 94 -94 107 -85 -21 23 -21 540 59 47 120 -1 -20 hstemhm
          0 93 -52 74 300 71 hintmask 0100110101000000
          1064 -62 callsubr
          hintmask 0010110101000000
          3 callgsubr
          hintmask 0100110101000000
          -36 callsubr
          -592 -112 rmoveto
          hintmask 1000101101000000
          15 callgsubr
          hintmask 1000110101000000
          -47 callsubr
          hintmask 0001110011000000
          -6 callsubr
          hintmask 1000110011000000
          10 callgsubr
          353 -32 rmoveto
          -5 callgsubr
        </CharString>
        <CharString name="two">
          77 -5 126 -126 231 310 225 -94 94 hstemhm
          89 132 hintmask 01101000
          510 226 rmoveto
          hintmask 10101000
          -14 -55 -22 -53 -67 3 -34 2 -88 21 -45 6 58 43 60 49 48 42 59 53 105 91 1 122 rrcurveto
          142 1 -108 69 -137 hhcurveto
          -106 -127 -52 -146 -5 hvcurveto
          -1 -8 1 -9 1 -10 rrcurveto
          136 hlineto
          -4 12 -1 13 12 vvcurveto
          hintmask 01011000
          2 46 29 45 70 3 40 -1 61 -33 -7 -84 -12 -138 -117 -77 -74 -68 -81 -74 -79 -67 -28 -37 rrcurveto
          1 hlineto
          37 -88 rlineto
          23 33 47 9 27 hhcurveto
          2 65 71 -39 102 hhcurveto
          97 61 41 128 10 hvcurveto
          1 18 -3 28 -4 16 rrcurveto
          endchar
        </CharString>
        <CharString name="two.dnom">
          -111 300 79 187 134 -47 47 hstemhm
          hintmask 11000000
          160 566 rmoveto
          -1 5 -1 29 5 vvcurveto
          hintmask 10100000
          -69 callsubr
          hintmask 11000000
          43 callgsubr
        </CharString>
        <CharString name="twosuperior">
          -182 310 69 207 114 -47 47 hstemhm
          hintmask 11000000
          127 586 rmoveto
          -1 5 -1 9 5 vvcurveto
          hintmask 10100000
          1 24 14 22 36 2 21 -1 32 -15 -4 -46 -6 -70 -55 -39 -38 -35 -41 -37 -47 -35 -13 -2 callgsubr
          -18 51 hhcurveto
          51 31 30 66 5 hvcurveto
          9 -1 9 -1 10 vhcurveto
          -42 callgsubr
          53 17 callsubr
          -66 -26 -74 -2 vhcurveto
          hintmask 11000000
          -1 -4 1 -5 -5 vvcurveto
          endchar
        </CharString>
        <CharString name="u">
          -32 -5 96 390 -20 hstem
          307 175 -104 callgsubr
        </CharString>
        <CharString name="uacute">
          -32 -5 96 44 callsubr
          225 555 -96 callgsubr
          -45 -567 -104 callgsubr
        </CharString>
        <CharString name="ucircumflex">
          -32 -5 96 614 -20 hstem
          294 705 -99 callgsubr
          -161 -409 -104 callgsubr
        </CharString>
        <CharString name="udieresis">
          -32 -5 96 446 145 hstemhm
          100 103 -103 -14 callsubr
          hintmask 11011000
          172 682 -104 callsubr
          -105 -507 -68 callsubr
          hintmask 11101000
          -105 callgsubr
        </CharString>
        <CharString name="ugrave">
          -32 -5 96 44 callsubr
          264 742 -93 callgsubr
          -84 -380 -104 callgsubr
        </CharString>
        <CharString name="underscore">
          21 -87 86 hstem
          10 -1 rmoveto
          -10 -86 rlineto
          549 0 callsubr
          endchar
        </CharString>
        <CharString name="v">
          -85 16 -21 364 142 hstem
          365 77 vstem
          442 367 rmoveto
          37 6 rlineto
          57 vlineto
          -14 -3 -15 -2 -14 -3 -11 46 -28 38 -67 10 callsubr
          -1 -85 -43 -175 -82 -9 -17 callsubr
          -34 -285 rcurveline
          -104 -10 55 -85 108 hhcurveto
          147 103 176 179 2 hvcurveto
          -118 81 2 callsubr
        </CharString>
        <CharString name="w">
          180 -5 92 272 142 hstem
          608 89 vstem
          834 473 rmoveto
          -26 -10 -60 -22 -62 -15 -15 44 -33 36 -65 10 callsubr
          -85 -28 -186 -79 -1 vhcurveto
          -54 -1 -16 35 8 66 rrcurveto
          10 80 22 137 28 vvcurveto
          37 -29 5 callsubr
          -34 -285 rcurveline
          -1 -14 rlineto
          -40 -11 -26 -39 -39 hhcurveto
          -28 -28 22 52 6 hvcurveto
          7 64 26 173 30 vvcurveto
          38 -30 11 -41 -24 -27 -8 -4 -12 vhcurveto
          -19 -184 -10 -68 -6 -59 -10 -95 67 -77 97 9 69 6 39 31 24 37 27 -47 51 -31 70 4 154 9 64 157 4 189 rrcurveto
          7 0 8 -1 8 vhcurveto
          57 13 55 20 26 10 rrcurveto
          -267 15 2 callsubr
        </CharString>
        <CharString name="x">
          -29 -1 86 -70 -21 157 40 117 187 hstemhm
          10 49 -31 31 hintmask 10110100
          494 172 rmoveto
          -22 -6 -14 -65 -38 hhcurveto
          -19 -9 8 25 -13 hvcurveto
          -13 24 -28 55 -31 60 36 53 rcurveline
          -1 7 8 -1 8 hhcurveto
          54 68 35 76 40 -33 36 -49 -34 -23 -10 -52 -34 hvcurveto
          -55 -86 -41 79 rlineto
          58 -30 -36 8 -29 hhcurveto
          -64 -48 -37 -67 -15 8 -38 13 -17 hvcurveto
          25 7 rlineto
          -3 12 -1 9 7 vvcurveto
          21 14 8 6 18 3 -8 -16 9 vhcurveto
          18 -30 29 -51 29 -53 -24 -36 rcurveline
          2 -10 -9 1 -10 hhcurveto
          hintmask 10111000
          -54 -79 -36 -79 -39 26 -38 57 42 29 27 42 29 hvcurveto
          49 71 32 -62 rlineto
          hintmask 01111000
          -57 28 28 -26 62 hhcurveto
          67 48 47 82 21 hvcurveto
          -86 295 rmoveto
          15 4 -13 -7 hvcurveto
          -34 -3 -43 -16 -31 hhcurveto
          59 38 6 11 14 hhcurveto
          -295 -267 rmoveto
          -50 -35 -20 -20 -15 hhcurveto
          -13 -5 9 8 36 49 17 31 hvcurveto
          endchar
        </CharString>
        <CharString name="y">
          -53 -297 89 689 -20 33 callgsubr
          hintmask 11100000
          468 473 -84 callgsubr
        </CharString>
        <CharString name="yacute">
          -53 -297 89 945 -20 33 callgsubr
          hintmask 11100000
          206 -72 callsubr
          135 -264 -84 callgsubr
        </CharString>
        <CharString name="ydieresis">
          -53 -297 89 740 145 33 callgsubr
          -63 111 -111 -14 callsubr
          hintmask 11000110
          153 677 -104 callsubr
          75 -204 -42 callsubr
          hintmask 11100010
          -31 -23 15 44 7 1 7 1 8 hvcurveto
          hintmask 11001010
          -76 callgsubr
          hintmask 11100010
          -11 callsubr
          hintmask 11010010
          -84 callsubr
        </CharString>
        <CharString name="yen">
          75 0 179 -86 86 54 86 442 -20 hstemhm
          244 160 hintmask 10111000
          76 460 rmoveto
          -6 -57 12 -50 31 -34 rrcurveto
          -61 35 callsubr
          144 hlineto
          -6 -54 rlineto
          -144 hlineto
          hintmask 01111000
          -10 -86 rlineto
          144 hlineto
          hintmask 10111000
          -10 -93 rlineto
          136 hlineto
          hintmask 01111000
          13 93 rlineto
          134 0 callsubr
          -134 hlineto
          8 54 rlineto
          133 0 callsubr
          -104 hlineto
          76 63 49 116 19 112 rrcurveto
          89 15 -31 62 -63 hhcurveto
          -69 8 -75 0 hvcurveto
          17 -5 15 -21 -39 vvcurveto
          -84 -43 -162 -83 -9 vhcurveto
          -17 callsubr
          rrcurveto
          endchar
        </CharString>
        <CharString name="z">
          32 callgsubr
          hstem
          279 384 -91 callgsubr
        </CharString>
        <CharString name="zcaron">
          32 callgsubr
          219 -20 hstem
          85 700 -61 callgsubr
          114 -316 -91 callgsubr
        </CharString>
        <CharString name="zero">
          134 0 94 571 96 hstem
          45 156 267 160 vstem
          371 22 callgsubr
          -194 2 -110 -151 -20 -236 rrcurveto
          -2 -16 0 -18 -7 vvcurveto
          3 -193 76 -133 168 -9 195 -10 121 175 18 210 rrcurveto
          2 16 0 18 17 vvcurveto
          -4 224 -107 109 -146 2 rrcurveto
          -6 -96 rmoveto
          113 -2 -6 -189 -4 -73 -14 -208 -63 -102 -82 3 -101 4 -5 133 -2 94 15 225 49 117 100 -2 rrcurveto
          endchar
        </CharString>
      <CharString index="0">
        -83 callgsubr
        -19 5 -20 2 -20 -2 -36 3 -42 -5 -26 -15 -45 callgsubr
        -102 callgsubr
        -363 454 -67 callsubr
        return
      </CharString>
      <CharString index="1">
        -101 callgsubr
        -73 callgsubr
        vhcurveto
        -54 callsubr
        return
      </CharString>
      <CharString index="2">
        -76 callgsubr
        -28 -240 -9 -70 -1 -9 rrcurveto
        -108 -12 70 -48 90 -98 callsubr
        -50 callgsubr
      </CharString>
      <CharString index="3">
        rmoveto
        -1 -12 -1 -12 -11 vvcurveto
        -33 -22 -30 -16 -31 hhcurveto
        -36 -24 20 61 8 hvcurveto
        -105 callgsubr
      </CharString>
      <CharString index="4">
        -57 callsubr
        -140 -130 -116 -160 7 hvcurveto
        -111 5 75 -100 140 -103 callsubr
        endchar
      </CharString>
      <CharString index="5">
        -95 callsubr
        4 -52 4 -46 4 -37 14 -140 37 -32 71 -1 72 -1 72 58 61 79 rrcurveto
        return
      </CharString>
      <CharString index="6">
        rmoveto
        -38 -29 -58 -26 -57 8 -79 callsubr
        -65 9 -36 -34 -7 -47 -2 -13 1 -13 3 -11 rrcurveto
        -12 vlineto
        -149 -76 -184 -133 return
      </CharString>
      <CharString index="7">
        rmoveto
        -11 -93 58 -50 84 -87 callsubr
        -77 callsubr
        endchar
      </CharString>
      <CharString index="8">
        rmoveto
        -174 -121 8 -15 16 -29 9 -14 rlinecurve
        141 73 141 -73 9 14 16 29 8 15 rlinecurve
        return
      </CharString>
      <CharString index="9">
        -41 -12 -38 -149 -70 hhcurveto
        -33 -16 25 31 24 -1 -17 74 592 hvcurveto
        -48 callsubr
        -331 -192 rmoveto
        -29 25 -17 27 28 vvcurveto
        5 1 38 33 17 5 -12 -20 vhcurveto
        -1 -17 -3 -23 -3 -25 rrcurveto
        endchar
      </CharString>
      <CharString index="10">
        -94 callsubr
        -71 callgsubr
        return
      </CharString>
      <CharString index="11">
        rmoveto
        6 -7 18 -22 14 -8 180 133 rcurveline
        -19 28 -43 49 -29 14 rrcurveto
        return
      </CharString>
      <CharString index="12">
        957 -104 callsubr
        return
      </CharString>
      <CharString index="13">
        240 hmoveto
        -56 callsubr
        -56 callgsubr
        hvcurveto
        return
      </CharString>
      <CharString index="14">
        rmoveto
        -29 -14 -43 -49 -19 -28 180 -133 rcurveline
        14 8 18 22 6 7 rrcurveto
        return
      </CharString>
      <CharString index="15">
        rmoveto
        -105 -30 -43 -34 -29 hhcurveto
        -15 -17 9 31 45 12 62 36 callsubr
        hvcurveto
        -58 callgsubr
        return
      </CharString>
      <CharString index="16">
        rmoveto
        -26 -33 -34 -36 -32 -35 -71 -76 -61 -65 -20 -51 rrcurveto
        -10 -13 -5 -24 -20 vvcurveto
        -18 6 -16 7 128 79 -4 -2 67 vhcurveto
        73 -2 40 38 60 vvcurveto
        51 -36 32 -51 2 vhcurveto
        -53 2 -39 -39 -18 -44 -67 4 rcurveline
        24 45 35 43 41 41 65 65 68 55 27 49 2 3 2 3 1 4 2 5 2 4 1 5 rrcurveto
        2 10 1 10 10 vvcurveto
        18 -6 16 -7 -128 -79 4 2 -67 vhcurveto
        -73 2 -40 -38 -60 vvcurveto
        -51 36 -32 51 -2 vhcurveto
        53 -2 39 39 18 44 rrcurveto
        -43 3 rmoveto
        -27 -15 -20 -15 -27 hhcurveto
        -15 -13 6 19 2 hvcurveto
        2 18 24 4 21 -2 rrcurveto
        124 -305 rmoveto
        27 15 20 15 27 hhcurveto
        15 13 -6 -19 -2 hvcurveto
        -2 -18 -24 -4 -21 2 rrcurveto
        endchar
      </CharString>
      <CharString index="17">
        -14 -6 -8 -12 -15 hhcurveto
        -19 -5 14 18 33 37 31 56 28 hvcurveto
        -18 -47 -14 -34 -8 -17 rrcurveto
        endchar
      </CharString>
      <CharString index="18">
        -83 callsubr
        -40 callsubr
        return
      </CharString>
      <CharString index="19">
        rmoveto
        13 25 8 24 24 vvcurveto
        69 -68 14 -19 -56 -50 -41 -63 -29 15 -24 22 -22 vhcurveto
        -32 -29 -36 -34 -35 -37 -92 -97 -21 -50 1 -60 2 -94 87 -65 95 17 rrcurveto
        50 9 17 14 5 4 -129 10 111 vvcurveto
        7 0 7 2 8 vhcurveto
        12 62 89 77 68 79 66 -40 70 -38 3 -62 2 -40 -28 -39 -47 2 rrcurveto
        hintmask 11100110
        -32 1 -29 25 31 vvcurveto
        21 7 21 14 20 vhcurveto
        -56 -7 -49 -34 -61 vvcurveto
        -63 62 -45 80 122 96 67 109 118 -130 51 -94 42 vhcurveto
        -70 101 rmoveto
        12 -1 13 -12 -4 -18 -2 -8 -8 -10 -13 -14 rrcurveto
        hintmask 11110010
        -14 11 -9 11 13 vvcurveto
        21 13 7 12 vhcurveto
        endchar
      </CharString>
      <CharString index="20">
        20 callsubr
        -44 -41 29 -32 37 -7 hvcurveto
        -24 -34 -26 -33 -32 -37 3 -3 42 -18 9 6 rrcurveto
        34 28 96 94 76 vvcurveto
        52 -41 30 -46 vhcurveto
        188 hmoveto
        -4 callgsubr
        -44 -41 29 -32 37 -7 hvcurveto
        -24 -34 -26 -33 -32 -37 3 -3 42 -18 9 6 rrcurveto
        34 28 96 94 76 vvcurveto
        52 -41 30 -46 vhcurveto
        endchar
      </CharString>
      <CharString index="21">
        -26 -32 -16 -38 -43 vvcurveto
        -87 59 -71 89 70 101 36 151 18 vhcurveto
        25 204 87 41 54 23 46 19 rlinecurve
        -586 288 rmoveto
        -47 32 -19 45 38 vvcurveto
        41 22 37 33 32 -2 -34 -15 vhcurveto
        213 -744 rmoveto
        -43 -6 -29 -20 -28 hhcurveto
        -28 -28 22 47 60 57 47 80 44 hvcurveto
        endchar
      </CharString>
      <CharString index="22">
        -4 callgsubr
        -45 -45 36 -36 45 45 37 36 45 45 -37 37 -45 hvcurveto
        return
      </CharString>
      <CharString index="23">
        -42 callsubr
        -31 -23 15 44 7 1 7 1 2 callgsubr
        -11 callsubr
        hintmask 11010000
        -84 callsubr
      </CharString>
      <CharString index="24">
        rmoveto
        -28 68 -51 -79 -69 -52 -35 -2 rlinecurve
        -28 -1 -5 15 -5 58 -5 59 -40 439 -1 85 return
      </CharString>
      <CharString index="25">
        -95 379 -86 callsubr
        endchar
      </CharString>
      <CharString index="26">
        -10 -81 rmoveto
        -44 callgsubr
        -62 -29 61 73 vhcurveto
        4 104 43 87 74 -1 rrcurveto
        endchar
      </CharString>
      <CharString index="27">
        -5 -47 rlineto
        25 hlineto
        37 47 -10 -51 -2 hvcurveto
        -31 -1 -20 -28 -42 hhcurveto
        -29 -31 23 54 -2 hvcurveto
        -81 -46 41 -67 67 -13 39 -1 rlinecurve
        77 -2 69 36 9 79 5 46 -31 29 -36 13 32 20 20 27 1 37 rrcurveto
        63 2 -47 42 -74 hhcurveto
        -50 -91 -26 -74 hvcurveto
        return
      </CharString>
      <CharString index="28">
        -61 callsubr
        -148 -134 -102 -136 7 vhcurveto
        2 -46 17 -38 24 -29 rrcurveto
        return
      </CharString>
      <CharString index="29">
        -77 callgsubr
        -264 -50 rmoveto
        return
      </CharString>
      <CharString index="30">
        -40 19 42 -24 61 hhcurveto
        48 84 29 143 43 hvcurveto
        -5 15 -10 21 -25 22 rrcurveto
        return
      </CharString>
      <CharString index="31">
        22 170 11 68 17 vvcurveto
        52 -37 2 -35 -19 -25 -5 -6 -17 vhcurveto
        return
      </CharString>
      <CharString index="32">
        700 -99 callgsubr
        return
      </CharString>
      <CharString index="33">
        7 20 2 24 -8 25 rlinecurve
        -398 hlineto
        8 callgsubr
        75 2 73 52 35 70 rrcurveto
        34 hlineto
        -347 -533 -29 -39 10 -49 8 -21 rlinecurve
        408 hlineto
        112 41 70 58 62 -46 53 -94 hvcurveto
        -75 -2 -73 -52 -35 -70 rrcurveto
        16 523 -23 callgsubr
        155 -523 rmoveto
        38 27 41 24 40 hhcurveto
        40 18 -13 -18 -25 -30 -6 -35 hvcurveto
        endchar
      </CharString>
      <CharString index="34">
        -106 -25 114 92 187 107 193 121 65 4 -46 -10 return
      </CharString>
      <CharString index="35">
        -53 callgsubr
        -44 25 rlineto
        -34 -14 -25 -34 -35 hhcurveto
        return
      </CharString>
      <CharString index="36">
        -76 callsubr
        55 -13 callgsubr
        return
      </CharString>
      <CharString index="37">
        -1 -6 -14 18 -12 15 -8 9 rlinecurve
        -25 29 -38 -48 -13 -18 26 -32 36 -47 35 -47 -31 -270 rcurveline
        -1 -9 -3 -30 -9 vvcurveto
        -84 63 -46 74 84 68 56 104 -10 vhcurveto
        -5 46 -22 49 -27 48 return
      </CharString>
      <CharString index="38">
        2 17 1 16 14 vvcurveto
        98 -52 32 -71 -77 -58 -52 -85 -69 38 -53 61 -43 vhcurveto
        -28 -234 rlineto
        return
      </CharString>
      <CharString index="39">
        -75 -38 -54 -66 -106 -63 callgsubr
        endchar
      </CharString>
      <CharString index="40">
        -51 callgsubr
        -30 callsubr
        -41 callgsubr
        -8 callsubr
        return
      </CharString>
      <CharString index="41">
        rmoveto
        5 46 40 12 32 -2 rrcurveto
        -3 49 96 -75 76 hhcurveto
        72 62 47 122 14 hvcurveto
        -44 hlineto
        -50 -20 -25 -21 -35 hhcurveto
        -50 -100 67 13 -73 hvcurveto
        -69 12 -69 -59 -5 -109 rrcurveto
        return
      </CharString>
      <CharString index="42">
        -46 callgsubr
        -118 89 -94 137 return
      </CharString>
      <CharString index="43">
        1017 -93 callgsubr
        return
      </CharString>
      <CharString index="44">
        vvcurveto
        -109 118 -97 154 -32 callgsubr
        vhcurveto
        return
      </CharString>
      <CharString index="45">
        -82 hlineto
        27 47 57 90 1 37 6 37 -24 18 -33 -1 -20 -1 -33 -7 -16 -16 18 -7 14 -13 -2 -19 -3 -28 -12 -52 -71 -92 -4 -5 20 -44 6 -8 rrcurveto
        return
      </CharString>
      <CharString index="46">
        rmoveto
        109 -158 rlineto
        106 hlineto
        119 158 rlineto
        -80 hlineto
        -87 -83 -87 83 rlineto
        return
      </CharString>
      <CharString index="47">
        -161 2 -117 -112 -177 vvcurveto
        return
      </CharString>
      <CharString index="48">
        -41 28 -27 44 -2 vhcurveto
        44 -2 47 23 7 71 8 70 -36 27 -42 10 12 62 11 59 5 31 rrcurveto
        40 6 -28 5 -25 hhcurveto
        -13 -14 -3 -1 -5 hvcurveto
        return
      </CharString>
      <CharString index="49">
        -38 callsubr
        -25 -24 -7 -10 -16 hvcurveto
        return
      </CharString>
      <CharString index="50">
        -30 callgsubr
        -37 -330 -70 callgsubr
        return
      </CharString>
      <CharString index="51">
        41 31 22 callsubr
        -31 33 -41 return
      </CharString>
      <CharString index="52">
        -33 callgsubr
        111 -90 93 -128 -1 return
      </CharString>
      <CharString index="53">
        rmoveto
        -85 callgsubr
        return
      </CharString>
      <CharString index="54">
        -3 49 42 -72 76 hhcurveto
        72 46 66 82 12 hvcurveto
        return
      </CharString>
      <CharString index="55">
        -42 -30 23 callgsubr
        30 -32 42 return
      </CharString>
      <CharString index="56">
        rmoveto
        -17 -6 -79 -35 -67 -31 67 554 rcurveline
        0 -22 10 -28 -38 -60 -18 -69 -8 vhcurveto
        -56 -511 rlineto
        -37 -17 -37 -36 -43 hhcurveto
        return
      </CharString>
      <CharString index="57">
        9 -15 -23 1 -18 hhcurveto
        -40 -34 -17 -23 -9 hvcurveto
        endchar
      </CharString>
      <CharString index="58">
        39 31 -19 -40 -27 -18 -28 -37 -26 -35 23 17 -11 hvcurveto
        -18 -38 17 -24 32 -19 42 -4 rlinecurve
        72 -7 55 50 61 vvcurveto
        return
      </CharString>
      <CharString index="59">
        -6 92 240 123 116 196 -87 87 return
      </CharString>
      <CharString index="60">
        -1 callgsubr
        23 -20 callsubr
        -105 -26 -39 -37 -38 hhcurveto
        -15 -20 11 41 5 hvcurveto
        12 107 10 63 40 callgsubr
        -45 -1 -40 -18 -30 -29 rrcurveto
        return
      </CharString>
      <CharString index="61">
        -153 -1 -119 -102 -172 vvcurveto
        return
      </CharString>
      <CharString index="62">
        -56 -146 -66 -172 -51 -130 return
      </CharString>
      <CharString index="63">
        60 -1 27 -69 -69 vvcurveto
        -103 -47 -82 -70 return
      </CharString>
      <CharString index="64">
        31 4 14 16 34 hhcurveto
        30 15 -28 -32 -1 hvcurveto
        -6 -45 -20 -13 -32 -3 rrcurveto
        -2 -14 -13 -1 -19 hhcurveto
        return
      </CharString>
      <CharString index="65">
        -31 hlineto
        -9 -31 -9 -26 -36 2 rrcurveto
        -14 -40 7 5 -26 hvcurveto
        31 21 28 24 21 21 rrcurveto
        27 28 return
      </CharString>
      <CharString index="66">
        6 1 5 6 vvcurveto
        89 -77 30 -54 -59 -98 -30 -136 -82 47 -62 76 -48 vhcurveto
        -32 -246 rlineto
        return
      </CharString>
      <CharString index="67">
        -26 callgsubr
        -47 -453 -43 callsubr
      </CharString>
      <CharString index="68">
        7 callsubr
        37 34 7 21 28 vhcurveto
        32 -21 62 -13 49 1 208 4 141 161 8 215 10 287 -215 105 -181 2 rrcurveto
        return
      </CharString>
      <CharString index="69">
        -25 callgsubr
        -205 246 return
      </CharString>
      <CharString index="70">
        -34 callsubr
        68 60 91 95 9 118 -16 callgsubr
        return
      </CharString>
      <CharString index="71">
        -61 -107 -106 -77 -86 -4 -75 -3 -51 55 3 103 3 92 54 72 53 2 50 2 14 -38 -4 -41 -2 -21 -6 -23 -6 -21 rrcurveto
        44 87 29 74 68 -62 48 -105 return
      </CharString>
      <CharString index="72">
        154 20 callsubr
        -44 -41 29 -32 37 -7 hvcurveto
        -24 -34 -26 -33 -32 -37 3 -3 42 -18 9 6 rrcurveto
        34 28 96 94 76 vvcurveto
        52 -41 30 -46 vhcurveto
        endchar
      </CharString>
      <CharString index="73">
        641 274 rmoveto
        -104 -65 -106 -84 -115 -17 callgsubr
        37 -43 -57 -73 -50 -34 -34 -35 -15 28 24 hvcurveto
        return
      </CharString>
      <CharString index="74">
        146 118 108 176 return
      </CharString>
      <CharString index="75">
        181 111 105 114 67 return
      </CharString>
      <CharString index="76">
        2 -15 hhcurveto
        -37 -33 -10 -16 -25 hvcurveto
        return
      </CharString>
      <CharString index="77">
        74 63 97 112 116 vvcurveto
        78 -43 48 -82 -120 -22 -86 -74 -8 vhcurveto
        return
      </CharString>
      <CharString index="78">
        -85 callgsubr
        endchar
      </CharString>
      <CharString index="79">
        -24 callsubr
        82 111 -16 callsubr
        return
      </CharString>
      <CharString index="80">
        96 -11 88 48 23 25 rrcurveto
        endchar
      </CharString>
      <CharString index="81">
        150 16 4 46 38 hhcurveto
        9 25 -5 -47 -54 -41 -71 -55 -57 hvcurveto
        return
      </CharString>
      <CharString index="82">
        hstemhm
        80 153 193 205 return
      </CharString>
      <CharString index="83">
        135 hlineto
        3 33 18 135 17 130 rrcurveto
        54 7 31 46 48 -15 callgsubr
        -72 -7 -85 rrcurveto
        return
      </CharString>
      <CharString index="84">
        rmoveto
        -38 -27 -41 -24 -40 hhcurveto
        -40 -18 13 18 25 30 6 35 hvcurveto
        return
      </CharString>
      <CharString index="85">
        162 112 90 178 15 hvcurveto
        129 11 -92 91 -101 hhcurveto
        return
      </CharString>
      <CharString index="86">
        hstem
        0 callgsubr
        141 vstem
        return
      </CharString>
      <CharString index="87">
        45 hhcurveto
        57 30 -57 -76 -6 hvcurveto
        -107 -8 -47 -67 -68 hhcurveto
        -37 -33 19 48 4 hvcurveto
        2 22 4 37 7 53 rrcurveto
        endchar
      </CharString>
      <CharString index="88">
        715 rmoveto
        36 -40 10 -38 -24 -25 -5 -3 -8 vhcurveto
        -25 -228 -35 -294 -27 -231 rrcurveto
        133 hlineto
        8 70 return
      </CharString>
      <CharString index="89">
        -20 -38 callgsubr
        hintmask 11111010
        return
      </CharString>
      <CharString index="90">
        hhcurveto
        -135 -37 114 99 186 96 188 141 72 return
      </CharString>
      <CharString index="91">
        rrcurveto
        85 7 -32 58 -106 hhcurveto
        -111 -22 -90 -74 -9 hvcurveto
        return
      </CharString>
      <CharString index="92">
        hhcurveto
        37 27 -25 -60 -8 hvcurveto
        -4 -33 -11 return
      </CharString>
      <CharString index="93">
        175 -6 91 -91 107 return
      </CharString>
      <CharString index="94">
        49 19 46 37 vhcurveto
        return
      </CharString>
      <CharString index="95">
        -49 callsubr
        255 -20 19 callgsubr
        hintmask 11010110
        return
      </CharString>
      <CharString index="96">
        715 rmoveto
        36 -42 10 -38 20 callgsubr
        vhcurveto
        return
      </CharString>
      <CharString index="97">
        hlineto
        13 80 rlineto
        -182 hlineto
        16 130 6 52 15 52 59 -3 rlinecurve
        38 -2 22 -28 -47 vvcurveto
        return
      </CharString>
      <CharString index="98">
        hstem
        26 139 177 121 vstem
        return
      </CharString>
      <CharString index="99">
        -20 -22 callsubr
        hintmask 10111100
        return
      </CharString>
      <CharString index="100">
        -20 1 callgsubr
        hintmask 10111000
        return
      </CharString>
      <CharString index="101">
        -105 -26 -48 -36 -29 hhcurveto
        -15 -20 12 41 5 hvcurveto
        12 107 10 61 31 callgsubr
        return
      </CharString>
      <CharString index="102">
        -65 -13 -12 -43 -25 hhcurveto
        -14 -10 7 23 -1 hvcurveto
        -1 24 15 25 62 35 rrcurveto
        endchar
      </CharString>
      <CharString index="103">
        -45 -36 -37 return
      </CharString>
      <CharString index="104">
        760 rmoveto
        -44 -35 -36 -44 -44 35 -35 44 44 36 35 44 44 -36 36 -44 hvcurveto
        return
      </CharString>
      <CharString index="105">
        -18 20 -47 rcurveline
        12 16 24 6 15 33 46 return
      </CharString>
      <CharString index="106">
        -58 -5 38 -71 89 hhcurveto
        58 80 return
      </CharString>
      <CharString index="107">
        20 141 208 return
      </CharString>
      <CharString index="108">
        hstemhm
        30 141 return
      </CharString>
      <CharString index="109">
        8 hvcurveto
        -76 callgsubr
        return
      </CharString>
      <CharString index="110">
        -60 -7 28 -58 80 hhcurveto
        88 97 75 98 62 hvcurveto
        -3 18 -19 53 0 vvcurveto
        return
      </CharString>
      <CharString index="111">
        8 callsubr
        256 -20 -9 callgsubr
        return
      </CharString>
      <CharString index="112">
        -20 hstemhm
        22 19 callsubr
        hintmask 11011110
        return
      </CharString>
      <CharString index="113">
        540 rmoveto
        -25 callsubr
        return
      </CharString>
      <CharString index="114">
        820 rmoveto
        -25 callsubr
        return
      </CharString>
      <CharString index="115">
        -112 -41 -70 -58 -62 46 -53 94 hvcurveto
        return
      </CharString>
      <CharString index="116">
        83 hlineto
        558 861 rlineto
        return
      </CharString>
      <CharString index="117">
        -59 -8 -21 -18 -21 hhcurveto
        -26 -9 19 17 34 34 36 59 34 hvcurveto
        return
      </CharString>
      <CharString index="118">
        144 114 -114 -144 -144 -114 -112 -144 return
      </CharString>
      <CharString index="119">
        165 14 callsubr
        return
      </CharString>
      <CharString index="120">
        1 14 14 vvcurveto
        89 -57 62 -93 -96 -86 -38 -129 -16 vhcurveto
        return
      </CharString>
      <CharString index="121">
        rlineto
        83 hlineto
        return
      </CharString>
      <CharString index="122">
        61 -1 42 50 -14 70 rrcurveto
        1 -104 -199 -1 -94 hhcurveto
        return
      </CharString>
      <CharString index="123">
        47 -3 -41 2 -26 13 callsubr
      </CharString>
      <CharString index="124">
        hstemhm
        25 67 22 139 -58 76 return
      </CharString>
      <CharString index="125">
        -79 -21 861 -20 hstem
        return
      </CharString>
      <CharString index="126">
        hstemhm
        41 75 -51 99 return
      </CharString>
      <CharString index="127">
        -24 -24 -5 -3 -8 return
      </CharString>
      <CharString index="128">
        -79 -21 100 55 252 56 34 57 251 56 hstem
        return
      </CharString>
      <CharString index="129">
        761 rmoveto
        return
      </CharString>
      <CharString index="130">
        -33 -40 -40 return
      </CharString>
      <CharString index="131">
        -38 callsubr
        -40 -37 -17 -23 -9 hvcurveto
        return
      </CharString>
      <CharString index="132">
        vvcurveto
        -61 36 -48 71 82 66 42 135 18 vhcurveto
        return
      </CharString>
      <CharString index="133">
        hstem
        40 89 10 149 15 141 4 75 vstem
        return
      </CharString>
      <CharString index="134">
        101 19 153 44 hvcurveto
        -2 6 -20 26 -10 17 return
      </CharString>
      <CharString index="135">
        hhcurveto
        -22 -16 8 11 -10 hvcurveto
        return
      </CharString>
      <CharString index="136">
        hlineto
        -87 -215 rlineto
        76 hlineto
        87 215 rlineto
        return
      </CharString>
      <CharString index="137">
        153 120 101 118 72 hvcurveto
        endchar
      </CharString>
      <CharString index="138">
        4 32 13 94 -72 return
      </CharString>
      <CharString index="139">
        -102 -3 96 37 42 134 42 37 96 return
      </CharString>
      <CharString index="140">
        hstemhm
        20 137 -91 78 return
      </CharString>
      <CharString index="141">
        78 137 159 65 return
      </CharString>
      <CharString index="142">
        93 171 93 return
      </CharString>
      <CharString index="143">
        105 -30 100 hstemhm
        return
      </CharString>
      <CharString index="144">
        -158 2 -152 -79 -5 -147 return
      </CharString>
      <CharString index="145">
        vvcurveto
        58 -47 47 -58 -58 -47 -47 -58 return
      </CharString>
      <CharString index="146">
        861 rlineto
        endchar
      </CharString>
      <CharString index="147">
        31 callgsubr
        49 -88 -1 return
      </CharString>
      <CharString index="148">
        rrcurveto
        1 5 0 6 4 vvcurveto
        56 return
      </CharString>
      <CharString index="149">
        -93 -137 -21 920 -20 hstem
        return
      </CharString>
      <CharString index="150">
        -1 -4 1 -25 -5 vvcurveto
        endchar
      </CharString>
      <CharString index="151">
        -20 hstem
        46 168 return
      </CharString>
      <CharString index="152">
        51 145 hstemhm
        return
      </CharString>
</ttFont>
